<svg xmlns="http://www.w3.org/2000/svg" width="416.84" height="455.84"><style><![CDATA[.B{fill:none}.C{stroke:none}]]></style><defs><clipPath id="A"><path d="M0 0h416.84v455.84H0z" class="B"/></clipPath></defs><g clip-path="url(#A)"><g fill="#5a67d8"><g stroke="#5a67d8"><g transform="matrix(.695 .719 -.719 .695 43.16 0)"><circle cx="2.5" cy="2.5" r="2.5" class="C"/><circle cx="2.5" cy="2.5" r="2" class="B"/></g><g transform="matrix(.695 .719 -.719 .695 58.16 0)"><circle cx="2.5" cy="2.5" r="2.5" class="C"/><circle cx="2.5" cy="2.5" r="2" class="B"/></g><g transform="matrix(.695 .719 -.719 .695 73.16 0)"><circle cx="2.5" cy="2.5" r="2.5" class="C"/><circle cx="2.5" cy="2.5" r="2" class="B"/></g><g transform="matrix(.695 .719 -.719 .695 88.16 0)"><circle cx="2.5" cy="2.5" r="2.5" class="C"/><circle cx="2.5" cy="2.5" r="2" class="B"/></g><g transform="matrix(.695 .719 -.719 .695 103.16 0)"><circle cx="2.5" cy="2.5" r="2.5" class="C"/><circle cx="2.5" cy="2.5" r="2" class="B"/></g><g transform="matrix(.695 .719 -.719 .695 118.16 0)"><circle cx="2.5" cy="2.5" r="2.5" class="C"/><circle cx="2.5" cy="2.5" r="2" class="B"/></g><g transform="matrix(.695 .719 -.719 .695 133.16 0)"><circle cx="2.5" cy="2.5" r="2.5" class="C"/><circle cx="2.5" cy="2.5" r="2" class="B"/></g><g transform="matrix(.695 .719 -.719 .695 148.16 0)"><circle cx="2.5" cy="2.5" r="2.5" class="C"/><circle cx="2.5" cy="2.5" r="2" class="B"/></g><g transform="matrix(.695 .719 -.719 .695 163.16 0)"><circle cx="2.5" cy="2.5" r="2.5" class="C"/><circle cx="2.5" cy="2.5" r="2" class="B"/></g><g transform="matrix(.695 .719 -.719 .695 178.16 0)"><circle cx="2.5" cy="2.5" r="2.5" class="C"/><circle cx="2.5" cy="2.5" r="2" class="B"/></g><g transform="matrix(.695 .719 -.719 .695 193.16 0)"><circle cx="2.5" cy="2.5" r="2.5" class="C"/><circle cx="2.5" cy="2.5" r="2" class="B"/></g><g transform="matrix(.695 .719 -.719 .695 208.16 0)"><circle cx="2.5" cy="2.5" r="2.5" class="C"/><circle cx="2.5" cy="2.5" r="2" class="B"/></g><g transform="matrix(.695 .719 -.719 .695 223.16 0)"><circle cx="2.5" cy="2.5" r="2.5" class="C"/><circle cx="2.5" cy="2.5" r="2" class="B"/></g><g transform="matrix(.695 .719 -.719 .695 238.16 0)"><circle cx="2.5" cy="2.5" r="2.5" class="C"/><circle cx="2.5" cy="2.5" r="2" class="B"/></g><g transform="matrix(.695 .719 -.719 .695 253.16 0)"><circle cx="2.5" cy="2.5" r="2.5" class="C"/><circle cx="2.5" cy="2.5" r="2" class="B"/></g><g transform="matrix(.695 .719 -.719 .695 268.16 0)"><circle cx="2.5" cy="2.5" r="2.5" class="C"/><circle cx="2.5" cy="2.5" r="2" class="B"/></g><g transform="matrix(.695 .719 -.719 .695 283.16 0)"><circle cx="2.5" cy="2.5" r="2.5" class="C"/><circle cx="2.5" cy="2.5" r="2" class="B"/></g><g transform="matrix(.695 .719 -.719 .695 298.16 0)"><circle cx="2.5" cy="2.5" r="2.5" class="C"/><circle cx="2.5" cy="2.5" r="2" class="B"/></g><g transform="matrix(.695 .719 -.719 .695 313.16 0)"><circle cx="2.5" cy="2.5" r="2.5" class="C"/><circle cx="2.5" cy="2.5" r="2" class="B"/></g><g transform="matrix(.695 .719 -.719 .695 328.16 0)"><circle cx="2.5" cy="2.5" r="2.5" class="C"/><circle cx="2.5" cy="2.5" r="2" class="B"/></g><g transform="matrix(.695 .719 -.719 .695 343.16 0)"><circle cx="2.5" cy="2.5" r="2.5" class="C"/><circle cx="2.5" cy="2.5" r="2" class="B"/></g><g transform="matrix(.695 .719 -.719 .695 358.16 0)"><circle cx="2.5" cy="2.5" r="2.5" class="C"/><circle cx="2.5" cy="2.5" r="2" class="B"/></g><g transform="matrix(.695 .719 -.719 .695 373.16 0)"><circle cx="2.5" cy="2.5" r="2.5" class="C"/><circle cx="2.5" cy="2.5" r="2" class="B"/></g><g transform="matrix(.695 .719 -.719 .695 388.16 0)"><circle cx="2.5" cy="2.5" r="2.5" class="C"/><circle cx="2.5" cy="2.5" r="2" class="B"/></g><g transform="matrix(.695 .719 -.719 .695 403.16 0)"><circle cx="2.5" cy="2.5" r="2.5" class="C"/><circle cx="2.5" cy="2.5" r="2" class="B"/></g><g transform="matrix(.695 .719 -.719 .695 418.16 0)"><circle cx="2.5" cy="2.5" r="2.5" class="C"/><circle cx="2.5" cy="2.5" r="2" class="B"/></g><g transform="matrix(.695 .719 -.719 .695 433.16 0)"><circle cx="2.5" cy="2.5" r="2.5" class="C"/><circle cx="2.5" cy="2.5" r="2" class="B"/></g><g transform="matrix(.695 .719 -.719 .695 448.16 0)"><circle cx="2.5" cy="2.5" r="2.5" class="C"/><circle cx="2.5" cy="2.5" r="2" class="B"/></g><g transform="matrix(.695 .719 -.719 .695 43.16 21)"><circle cx="2.5" cy="2.5" r="2.5" class="C"/><circle cx="2.5" cy="2.5" r="2" class="B"/></g><g transform="matrix(.695 .719 -.719 .695 58.16 21)"><circle cx="2.5" cy="2.5" r="2.5" class="C"/><circle cx="2.5" cy="2.5" r="2" class="B"/></g><g transform="matrix(.695 .719 -.719 .695 73.16 21)"><circle cx="2.5" cy="2.5" r="2.5" class="C"/><circle cx="2.5" cy="2.5" r="2" class="B"/></g><g transform="matrix(.695 .719 -.719 .695 88.16 21)"><circle cx="2.5" cy="2.5" r="2.5" class="C"/><circle cx="2.5" cy="2.5" r="2" class="B"/></g><g transform="matrix(.695 .719 -.719 .695 103.16 21)"><circle cx="2.5" cy="2.5" r="2.5" class="C"/><circle cx="2.5" cy="2.5" r="2" class="B"/></g><g transform="matrix(.695 .719 -.719 .695 118.16 21)"><circle cx="2.5" cy="2.5" r="2.5" class="C"/><circle cx="2.5" cy="2.5" r="2" class="B"/></g><g transform="matrix(.695 .719 -.719 .695 133.16 21)"><circle cx="2.5" cy="2.5" r="2.5" class="C"/><circle cx="2.5" cy="2.5" r="2" class="B"/></g><g transform="matrix(.695 .719 -.719 .695 148.16 21)"><circle cx="2.5" cy="2.5" r="2.5" class="C"/><circle cx="2.5" cy="2.5" r="2" class="B"/></g><g transform="matrix(.695 .719 -.719 .695 163.16 21)"><circle cx="2.5" cy="2.5" r="2.5" class="C"/><circle cx="2.5" cy="2.5" r="2" class="B"/></g><g transform="matrix(.695 .719 -.719 .695 178.16 21)"><circle cx="2.5" cy="2.5" r="2.5" class="C"/><circle cx="2.5" cy="2.5" r="2" class="B"/></g><g transform="matrix(.695 .719 -.719 .695 193.16 21)"><circle cx="2.5" cy="2.5" r="2.5" class="C"/><circle cx="2.5" cy="2.5" r="2" class="B"/></g><g transform="matrix(.695 .719 -.719 .695 208.16 21)"><circle cx="2.5" cy="2.5" r="2.5" class="C"/><circle cx="2.5" cy="2.5" r="2" class="B"/></g><g transform="matrix(.695 .719 -.719 .695 223.16 21)"><circle cx="2.5" cy="2.5" r="2.5" class="C"/><circle cx="2.5" cy="2.5" r="2" class="B"/></g><g transform="matrix(.695 .719 -.719 .695 238.16 21)"><circle cx="2.5" cy="2.5" r="2.5" class="C"/><circle cx="2.5" cy="2.5" r="2" class="B"/></g><g transform="matrix(.695 .719 -.719 .695 253.16 21)"><circle cx="2.5" cy="2.5" r="2.5" class="C"/><circle cx="2.5" cy="2.5" r="2" class="B"/></g><g transform="matrix(.695 .719 -.719 .695 268.16 21)"><circle cx="2.5" cy="2.5" r="2.5" class="C"/><circle cx="2.5" cy="2.5" r="2" class="B"/></g><g transform="matrix(.695 .719 -.719 .695 283.16 21)"><circle cx="2.5" cy="2.5" r="2.5" class="C"/><circle cx="2.5" cy="2.5" r="2" class="B"/></g><g transform="matrix(.695 .719 -.719 .695 298.16 21)"><circle cx="2.5" cy="2.5" r="2.5" class="C"/><circle cx="2.5" cy="2.5" r="2" class="B"/></g><g transform="matrix(.695 .719 -.719 .695 313.16 21)"><circle cx="2.5" cy="2.5" r="2.5" class="C"/><circle cx="2.5" cy="2.5" r="2" class="B"/></g><g transform="matrix(.695 .719 -.719 .695 328.16 21)"><circle cx="2.5" cy="2.5" r="2.5" class="C"/><circle cx="2.5" cy="2.5" r="2" class="B"/></g><g transform="matrix(.695 .719 -.719 .695 343.16 21)"><circle cx="2.5" cy="2.5" r="2.5" class="C"/><circle cx="2.5" cy="2.5" r="2" class="B"/></g><g transform="matrix(.695 .719 -.719 .695 358.16 21)"><circle cx="2.5" cy="2.5" r="2.5" class="C"/><circle cx="2.5" cy="2.5" r="2" class="B"/></g><g transform="matrix(.695 .719 -.719 .695 373.16 21)"><circle cx="2.5" cy="2.5" r="2.5" class="C"/><circle cx="2.5" cy="2.5" r="2" class="B"/></g><g transform="matrix(.695 .719 -.719 .695 388.16 21)"><circle cx="2.5" cy="2.5" r="2.5" class="C"/><circle cx="2.5" cy="2.5" r="2" class="B"/></g><g transform="matrix(.695 .719 -.719 .695 403.16 21)"><circle cx="2.5" cy="2.5" r="2.5" class="C"/><circle cx="2.5" cy="2.5" r="2" class="B"/></g><g transform="matrix(.695 .719 -.719 .695 418.16 21)"><circle cx="2.5" cy="2.5" r="2.5" class="C"/><circle cx="2.5" cy="2.5" r="2" class="B"/></g><g transform="matrix(.695 .719 -.719 .695 433.16 21)"><circle cx="2.5" cy="2.5" r="2.5" class="C"/><circle cx="2.5" cy="2.5" r="2" class="B"/></g><g transform="matrix(.695 .719 -.719 .695 448.16 21)"><circle cx="2.5" cy="2.5" r="2.5" class="C"/><circle cx="2.5" cy="2.5" r="2" class="B"/></g><g transform="matrix(.695 .719 -.719 .695 43.16 42)"><circle cx="2.5" cy="2.5" r="2.5" class="C"/><circle cx="2.5" cy="2.5" r="2" class="B"/></g><g transform="matrix(.695 .719 -.719 .695 58.16 42)"><circle cx="2.5" cy="2.5" r="2.5" class="C"/><circle cx="2.5" cy="2.5" r="2" class="B"/></g><g transform="matrix(.695 .719 -.719 .695 73.16 42)"><circle cx="2.5" cy="2.5" r="2.5" class="C"/><circle cx="2.5" cy="2.5" r="2" class="B"/></g><g transform="matrix(.695 .719 -.719 .695 88.16 42)"><circle cx="2.5" cy="2.5" r="2.5" class="C"/><circle cx="2.5" cy="2.5" r="2" class="B"/></g><g transform="matrix(.695 .719 -.719 .695 103.16 42)"><circle cx="2.5" cy="2.5" r="2.5" class="C"/><circle cx="2.5" cy="2.5" r="2" class="B"/></g><g transform="matrix(.695 .719 -.719 .695 118.16 42)"><circle cx="2.5" cy="2.5" r="2.5" class="C"/><circle cx="2.5" cy="2.5" r="2" class="B"/></g><g transform="matrix(.695 .719 -.719 .695 133.16 42)"><circle cx="2.5" cy="2.5" r="2.5" class="C"/><circle cx="2.5" cy="2.5" r="2" class="B"/></g><g transform="matrix(.695 .719 -.719 .695 148.16 42)"><circle cx="2.5" cy="2.5" r="2.5" class="C"/><circle cx="2.5" cy="2.5" r="2" class="B"/></g><g transform="matrix(.695 .719 -.719 .695 163.16 42)"><circle cx="2.5" cy="2.5" r="2.5" class="C"/><circle cx="2.5" cy="2.5" r="2" class="B"/></g><g transform="matrix(.695 .719 -.719 .695 178.16 42)"><circle cx="2.5" cy="2.5" r="2.5" class="C"/><circle cx="2.5" cy="2.5" r="2" class="B"/></g><g transform="matrix(.695 .719 -.719 .695 193.16 42)"><circle cx="2.5" cy="2.5" r="2.5" class="C"/><circle cx="2.5" cy="2.5" r="2" class="B"/></g><g transform="matrix(.695 .719 -.719 .695 208.16 42)"><circle cx="2.5" cy="2.5" r="2.5" class="C"/><circle cx="2.5" cy="2.5" r="2" class="B"/></g><g transform="matrix(.695 .719 -.719 .695 223.16 42)"><circle cx="2.5" cy="2.5" r="2.5" class="C"/><circle cx="2.5" cy="2.5" r="2" class="B"/></g><g transform="matrix(.695 .719 -.719 .695 238.16 42)"><circle cx="2.5" cy="2.5" r="2.5" class="C"/><circle cx="2.5" cy="2.5" r="2" class="B"/></g><g transform="matrix(.695 .719 -.719 .695 253.16 42)"><circle cx="2.5" cy="2.5" r="2.5" class="C"/><circle cx="2.5" cy="2.5" r="2" class="B"/></g><g transform="matrix(.695 .719 -.719 .695 268.16 42)"><circle cx="2.5" cy="2.5" r="2.5" class="C"/><circle cx="2.5" cy="2.5" r="2" class="B"/></g><g transform="matrix(.695 .719 -.719 .695 283.16 42)"><circle cx="2.5" cy="2.5" r="2.5" class="C"/><circle cx="2.5" cy="2.5" r="2" class="B"/></g><g transform="matrix(.695 .719 -.719 .695 298.16 42)"><circle cx="2.5" cy="2.5" r="2.5" class="C"/><circle cx="2.5" cy="2.5" r="2" class="B"/></g><g transform="matrix(.695 .719 -.719 .695 313.16 42)"><circle cx="2.5" cy="2.5" r="2.5" class="C"/><circle cx="2.5" cy="2.5" r="2" class="B"/></g><g transform="matrix(.695 .719 -.719 .695 328.16 42)"><circle cx="2.5" cy="2.5" r="2.5" class="C"/><circle cx="2.5" cy="2.5" r="2" class="B"/></g><g transform="matrix(.695 .719 -.719 .695 343.16 42)"><circle cx="2.5" cy="2.5" r="2.5" class="C"/><circle cx="2.5" cy="2.5" r="2" class="B"/></g><g transform="matrix(.695 .719 -.719 .695 358.16 42)"><circle cx="2.5" cy="2.5" r="2.5" class="C"/><circle cx="2.5" cy="2.5" r="2" class="B"/></g><g transform="matrix(.695 .719 -.719 .695 373.16 42)"><circle cx="2.5" cy="2.5" r="2.5" class="C"/><circle cx="2.5" cy="2.5" r="2" class="B"/></g><g transform="matrix(.695 .719 -.719 .695 388.16 42)"><circle cx="2.5" cy="2.5" r="2.5" class="C"/><circle cx="2.5" cy="2.5" r="2" class="B"/></g><g transform="matrix(.695 .719 -.719 .695 403.16 42)"><circle cx="2.5" cy="2.5" r="2.5" class="C"/><circle cx="2.5" cy="2.5" r="2" class="B"/></g><g transform="matrix(.695 .719 -.719 .695 418.16 42)"><circle cx="2.5" cy="2.5" r="2.5" class="C"/><circle cx="2.5" cy="2.5" r="2" class="B"/></g><g transform="matrix(.695 .719 -.719 .695 433.16 42)"><circle cx="2.5" cy="2.5" r="2.5" class="C"/><circle cx="2.5" cy="2.5" r="2" class="B"/></g><g transform="matrix(.695 .719 -.719 .695 448.16 42)"><circle cx="2.5" cy="2.5" r="2.5" class="C"/><circle cx="2.5" cy="2.5" r="2" class="B"/></g><g transform="matrix(.695 .719 -.719 .695 43.16 63)"><circle cx="2.5" cy="2.5" r="2.5" class="C"/><circle cx="2.5" cy="2.5" r="2" class="B"/></g><g transform="matrix(.695 .719 -.719 .695 58.16 63)"><circle cx="2.5" cy="2.5" r="2.5" class="C"/><circle cx="2.5" cy="2.5" r="2" class="B"/></g><g transform="matrix(.695 .719 -.719 .695 73.16 63)"><circle cx="2.5" cy="2.5" r="2.5" class="C"/><circle cx="2.5" cy="2.5" r="2" class="B"/></g><g transform="matrix(.695 .719 -.719 .695 88.16 63)"><circle cx="2.5" cy="2.5" r="2.5" class="C"/><circle cx="2.5" cy="2.5" r="2" class="B"/></g><g transform="matrix(.695 .719 -.719 .695 103.16 63)"><circle cx="2.5" cy="2.5" r="2.5" class="C"/><circle cx="2.5" cy="2.5" r="2" class="B"/></g><g transform="matrix(.695 .719 -.719 .695 118.16 63)"><circle cx="2.5" cy="2.5" r="2.5" class="C"/><circle cx="2.5" cy="2.5" r="2" class="B"/></g><g transform="matrix(.695 .719 -.719 .695 133.16 63)"><circle cx="2.5" cy="2.5" r="2.5" class="C"/><circle cx="2.5" cy="2.5" r="2" class="B"/></g><g transform="matrix(.695 .719 -.719 .695 148.16 63)"><circle cx="2.5" cy="2.5" r="2.5" class="C"/><circle cx="2.5" cy="2.5" r="2" class="B"/></g><g transform="matrix(.695 .719 -.719 .695 163.16 63)"><circle cx="2.5" cy="2.5" r="2.5" class="C"/><circle cx="2.5" cy="2.5" r="2" class="B"/></g><g transform="matrix(.695 .719 -.719 .695 178.16 63)"><circle cx="2.5" cy="2.5" r="2.5" class="C"/><circle cx="2.5" cy="2.5" r="2" class="B"/></g><g transform="matrix(.695 .719 -.719 .695 193.16 63)"><circle cx="2.5" cy="2.5" r="2.5" class="C"/><circle cx="2.5" cy="2.5" r="2" class="B"/></g><g transform="matrix(.695 .719 -.719 .695 208.16 63)"><circle cx="2.5" cy="2.5" r="2.5" class="C"/><circle cx="2.5" cy="2.5" r="2" class="B"/></g><g transform="matrix(.695 .719 -.719 .695 223.16 63)"><circle cx="2.5" cy="2.5" r="2.5" class="C"/><circle cx="2.5" cy="2.5" r="2" class="B"/></g><g transform="matrix(.695 .719 -.719 .695 238.16 63)"><circle cx="2.5" cy="2.5" r="2.5" class="C"/><circle cx="2.5" cy="2.5" r="2" class="B"/></g><g transform="matrix(.695 .719 -.719 .695 253.16 63)"><circle cx="2.5" cy="2.5" r="2.5" class="C"/><circle cx="2.5" cy="2.5" r="2" class="B"/></g><g transform="matrix(.695 .719 -.719 .695 268.16 63)"><circle cx="2.5" cy="2.5" r="2.5" class="C"/><circle cx="2.5" cy="2.5" r="2" class="B"/></g><g transform="matrix(.695 .719 -.719 .695 283.16 63)"><circle cx="2.5" cy="2.5" r="2.5" class="C"/><circle cx="2.5" cy="2.5" r="2" class="B"/></g><g transform="matrix(.695 .719 -.719 .695 298.16 63)"><circle cx="2.5" cy="2.5" r="2.5" class="C"/><circle cx="2.5" cy="2.5" r="2" class="B"/></g><g transform="matrix(.695 .719 -.719 .695 313.16 63)"><circle cx="2.5" cy="2.5" r="2.5" class="C"/><circle cx="2.5" cy="2.5" r="2" class="B"/></g><g transform="matrix(.695 .719 -.719 .695 328.16 63)"><circle cx="2.5" cy="2.5" r="2.5" class="C"/><circle cx="2.5" cy="2.5" r="2" class="B"/></g><g transform="matrix(.695 .719 -.719 .695 343.16 63)"><circle cx="2.5" cy="2.5" r="2.5" class="C"/><circle cx="2.5" cy="2.5" r="2" class="B"/></g><g transform="matrix(.695 .719 -.719 .695 358.16 63)"><circle cx="2.5" cy="2.5" r="2.5" class="C"/><circle cx="2.5" cy="2.5" r="2" class="B"/></g><g transform="matrix(.695 .719 -.719 .695 373.16 63)"><circle cx="2.5" cy="2.5" r="2.5" class="C"/><circle cx="2.5" cy="2.5" r="2" class="B"/></g><g transform="matrix(.695 .719 -.719 .695 388.16 63)"><circle cx="2.5" cy="2.5" r="2.5" class="C"/><circle cx="2.5" cy="2.5" r="2" class="B"/></g><g transform="matrix(.695 .719 -.719 .695 403.16 63)"><circle cx="2.5" cy="2.5" r="2.5" class="C"/><circle cx="2.5" cy="2.5" r="2" class="B"/></g><g transform="matrix(.695 .719 -.719 .695 418.16 63)"><circle cx="2.5" cy="2.5" r="2.5" class="C"/><circle cx="2.5" cy="2.5" r="2" class="B"/></g><g transform="matrix(.695 .719 -.719 .695 433.16 63)"><circle cx="2.5" cy="2.5" r="2.5" class="C"/><circle cx="2.5" cy="2.5" r="2" class="B"/></g><g transform="matrix(.695 .719 -.719 .695 448.16 63)"><circle cx="2.5" cy="2.5" r="2.5" class="C"/><circle cx="2.5" cy="2.5" r="2" class="B"/></g><g transform="matrix(.695 .719 -.719 .695 43.16 84)"><circle cx="2.5" cy="2.5" r="2.5" class="C"/><circle cx="2.5" cy="2.5" r="2" class="B"/></g><g transform="matrix(.695 .719 -.719 .695 58.16 84)"><circle cx="2.5" cy="2.5" r="2.5" class="C"/><circle cx="2.5" cy="2.5" r="2" class="B"/></g><g transform="matrix(.695 .719 -.719 .695 73.16 84)"><circle cx="2.5" cy="2.5" r="2.5" class="C"/><circle cx="2.5" cy="2.5" r="2" class="B"/></g><g transform="matrix(.695 .719 -.719 .695 88.16 84)"><circle cx="2.5" cy="2.5" r="2.5" class="C"/><circle cx="2.5" cy="2.5" r="2" class="B"/></g><g transform="matrix(.695 .719 -.719 .695 103.16 84)"><circle cx="2.5" cy="2.5" r="2.5" class="C"/><circle cx="2.5" cy="2.5" r="2" class="B"/></g><g transform="matrix(.695 .719 -.719 .695 118.16 84)"><circle cx="2.5" cy="2.5" r="2.5" class="C"/><circle cx="2.5" cy="2.5" r="2" class="B"/></g><g transform="matrix(.695 .719 -.719 .695 133.16 84)"><circle cx="2.5" cy="2.5" r="2.5" class="C"/><circle cx="2.5" cy="2.5" r="2" class="B"/></g><g transform="matrix(.695 .719 -.719 .695 148.16 84)"><circle cx="2.5" cy="2.5" r="2.5" class="C"/><circle cx="2.5" cy="2.5" r="2" class="B"/></g><g transform="matrix(.695 .719 -.719 .695 163.16 84)"><circle cx="2.5" cy="2.5" r="2.5" class="C"/><circle cx="2.5" cy="2.5" r="2" class="B"/></g><g transform="matrix(.695 .719 -.719 .695 178.16 84)"><circle cx="2.5" cy="2.5" r="2.5" class="C"/><circle cx="2.5" cy="2.5" r="2" class="B"/></g><g transform="matrix(.695 .719 -.719 .695 193.16 84)"><circle cx="2.5" cy="2.5" r="2.5" class="C"/><circle cx="2.5" cy="2.5" r="2" class="B"/></g><g transform="matrix(.695 .719 -.719 .695 208.16 84)"><circle cx="2.5" cy="2.5" r="2.5" class="C"/><circle cx="2.5" cy="2.5" r="2" class="B"/></g><g transform="matrix(.695 .719 -.719 .695 223.16 84)"><circle cx="2.5" cy="2.5" r="2.5" class="C"/><circle cx="2.5" cy="2.5" r="2" class="B"/></g><g transform="matrix(.695 .719 -.719 .695 238.16 84)"><circle cx="2.5" cy="2.5" r="2.5" class="C"/><circle cx="2.5" cy="2.5" r="2" class="B"/></g><g transform="matrix(.695 .719 -.719 .695 253.16 84)"><circle cx="2.5" cy="2.5" r="2.5" class="C"/><circle cx="2.5" cy="2.5" r="2" class="B"/></g><g transform="matrix(.695 .719 -.719 .695 268.16 84)"><circle cx="2.5" cy="2.5" r="2.5" class="C"/><circle cx="2.5" cy="2.5" r="2" class="B"/></g><g transform="matrix(.695 .719 -.719 .695 283.16 84)"><circle cx="2.5" cy="2.5" r="2.5" class="C"/><circle cx="2.5" cy="2.5" r="2" class="B"/></g><g transform="matrix(.695 .719 -.719 .695 298.16 84)"><circle cx="2.5" cy="2.5" r="2.5" class="C"/><circle cx="2.5" cy="2.5" r="2" class="B"/></g><g transform="matrix(.695 .719 -.719 .695 313.16 84)"><circle cx="2.5" cy="2.5" r="2.5" class="C"/><circle cx="2.5" cy="2.5" r="2" class="B"/></g><g transform="matrix(.695 .719 -.719 .695 328.16 84)"><circle cx="2.5" cy="2.5" r="2.5" class="C"/><circle cx="2.5" cy="2.5" r="2" class="B"/></g><g transform="matrix(.695 .719 -.719 .695 343.16 84)"><circle cx="2.5" cy="2.5" r="2.5" class="C"/><circle cx="2.5" cy="2.5" r="2" class="B"/></g><g transform="matrix(.695 .719 -.719 .695 358.16 84)"><circle cx="2.5" cy="2.5" r="2.5" class="C"/><circle cx="2.5" cy="2.5" r="2" class="B"/></g><g transform="matrix(.695 .719 -.719 .695 373.16 84)"><circle cx="2.5" cy="2.5" r="2.5" class="C"/><circle cx="2.5" cy="2.5" r="2" class="B"/></g><g transform="matrix(.695 .719 -.719 .695 388.16 84)"><circle cx="2.5" cy="2.5" r="2.5" class="C"/><circle cx="2.5" cy="2.5" r="2" class="B"/></g><g transform="matrix(.695 .719 -.719 .695 403.16 84)"><circle cx="2.5" cy="2.5" r="2.5" class="C"/><circle cx="2.5" cy="2.5" r="2" class="B"/></g><g transform="matrix(.695 .719 -.719 .695 418.16 84)"><circle cx="2.5" cy="2.5" r="2.5" class="C"/><circle cx="2.5" cy="2.5" r="2" class="B"/></g><g transform="matrix(.695 .719 -.719 .695 433.16 84)"><circle cx="2.5" cy="2.5" r="2.5" class="C"/><circle cx="2.5" cy="2.5" r="2" class="B"/></g><g transform="matrix(.695 .719 -.719 .695 448.16 84)"><circle cx="2.5" cy="2.5" r="2.5" class="C"/><circle cx="2.5" cy="2.5" r="2" class="B"/></g><g transform="matrix(.695 .719 -.719 .695 43.16 105)"><circle cx="2.5" cy="2.5" r="2.5" class="C"/><circle cx="2.5" cy="2.5" r="2" class="B"/></g><g transform="matrix(.695 .719 -.719 .695 58.16 105)"><circle cx="2.5" cy="2.5" r="2.5" class="C"/><circle cx="2.5" cy="2.5" r="2" class="B"/></g><g transform="matrix(.695 .719 -.719 .695 73.16 105)"><circle cx="2.5" cy="2.5" r="2.5" class="C"/><circle cx="2.5" cy="2.5" r="2" class="B"/></g><g transform="matrix(.695 .719 -.719 .695 88.16 105)"><circle cx="2.5" cy="2.5" r="2.5" class="C"/><circle cx="2.5" cy="2.5" r="2" class="B"/></g><g transform="matrix(.695 .719 -.719 .695 103.16 105)"><circle cx="2.5" cy="2.5" r="2.5" class="C"/><circle cx="2.5" cy="2.5" r="2" class="B"/></g><g transform="matrix(.695 .719 -.719 .695 118.16 105)"><circle cx="2.5" cy="2.5" r="2.5" class="C"/><circle cx="2.5" cy="2.5" r="2" class="B"/></g><g transform="matrix(.695 .719 -.719 .695 133.16 105)"><circle cx="2.5" cy="2.5" r="2.5" class="C"/><circle cx="2.5" cy="2.5" r="2" class="B"/></g><g transform="matrix(.695 .719 -.719 .695 148.16 105)"><circle cx="2.5" cy="2.5" r="2.5" class="C"/><circle cx="2.5" cy="2.5" r="2" class="B"/></g><g transform="matrix(.695 .719 -.719 .695 163.16 105)"><circle cx="2.5" cy="2.5" r="2.5" class="C"/><circle cx="2.5" cy="2.5" r="2" class="B"/></g><g transform="matrix(.695 .719 -.719 .695 178.16 105)"><circle cx="2.5" cy="2.5" r="2.5" class="C"/><circle cx="2.5" cy="2.5" r="2" class="B"/></g><g transform="matrix(.695 .719 -.719 .695 193.16 105)"><circle cx="2.5" cy="2.5" r="2.5" class="C"/><circle cx="2.5" cy="2.5" r="2" class="B"/></g><g transform="matrix(.695 .719 -.719 .695 208.16 105)"><circle cx="2.5" cy="2.5" r="2.5" class="C"/><circle cx="2.5" cy="2.5" r="2" class="B"/></g><g transform="matrix(.695 .719 -.719 .695 223.16 105)"><circle cx="2.5" cy="2.5" r="2.5" class="C"/><circle cx="2.5" cy="2.5" r="2" class="B"/></g><g transform="matrix(.695 .719 -.719 .695 238.16 105)"><circle cx="2.5" cy="2.5" r="2.5" class="C"/><circle cx="2.5" cy="2.5" r="2" class="B"/></g><g transform="matrix(.695 .719 -.719 .695 253.16 105)"><circle cx="2.5" cy="2.5" r="2.5" class="C"/><circle cx="2.5" cy="2.5" r="2" class="B"/></g><g transform="matrix(.695 .719 -.719 .695 268.16 105)"><circle cx="2.5" cy="2.5" r="2.5" class="C"/><circle cx="2.5" cy="2.5" r="2" class="B"/></g><g transform="matrix(.695 .719 -.719 .695 283.16 105)"><circle cx="2.5" cy="2.5" r="2.5" class="C"/><circle cx="2.5" cy="2.5" r="2" class="B"/></g><g transform="matrix(.695 .719 -.719 .695 298.16 105)"><circle cx="2.5" cy="2.5" r="2.5" class="C"/><circle cx="2.5" cy="2.5" r="2" class="B"/></g><g transform="matrix(.695 .719 -.719 .695 313.16 105)"><circle cx="2.5" cy="2.5" r="2.5" class="C"/><circle cx="2.5" cy="2.5" r="2" class="B"/></g><g transform="matrix(.695 .719 -.719 .695 328.16 105)"><circle cx="2.5" cy="2.5" r="2.5" class="C"/><circle cx="2.5" cy="2.5" r="2" class="B"/></g><g transform="matrix(.695 .719 -.719 .695 343.16 105)"><circle cx="2.5" cy="2.5" r="2.5" class="C"/><circle cx="2.5" cy="2.5" r="2" class="B"/></g><g transform="matrix(.695 .719 -.719 .695 358.16 105)"><circle cx="2.5" cy="2.5" r="2.5" class="C"/><circle cx="2.5" cy="2.5" r="2" class="B"/></g><g transform="matrix(.695 .719 -.719 .695 373.16 105)"><circle cx="2.5" cy="2.5" r="2.5" class="C"/><circle cx="2.5" cy="2.5" r="2" class="B"/></g><g transform="matrix(.695 .719 -.719 .695 388.16 105)"><circle cx="2.5" cy="2.5" r="2.5" class="C"/><circle cx="2.5" cy="2.5" r="2" class="B"/></g><g transform="matrix(.695 .719 -.719 .695 403.16 105)"><circle cx="2.5" cy="2.5" r="2.5" class="C"/><circle cx="2.5" cy="2.5" r="2" class="B"/></g><g transform="matrix(.695 .719 -.719 .695 418.16 105)"><circle cx="2.5" cy="2.5" r="2.5" class="C"/><circle cx="2.5" cy="2.5" r="2" class="B"/></g><g transform="matrix(.695 .719 -.719 .695 433.16 105)"><circle cx="2.5" cy="2.5" r="2.5" class="C"/><circle cx="2.5" cy="2.5" r="2" class="B"/></g><g transform="matrix(.695 .719 -.719 .695 448.16 105)"><circle cx="2.5" cy="2.5" r="2.5" class="C"/><circle cx="2.5" cy="2.5" r="2" class="B"/></g><g transform="matrix(.695 .719 -.719 .695 43.16 126)"><circle cx="2.5" cy="2.5" r="2.5" class="C"/><circle cx="2.5" cy="2.5" r="2" class="B"/></g><g transform="matrix(.695 .719 -.719 .695 58.16 126)"><circle cx="2.5" cy="2.5" r="2.5" class="C"/><circle cx="2.5" cy="2.5" r="2" class="B"/></g><g transform="matrix(.695 .719 -.719 .695 73.16 126)"><circle cx="2.5" cy="2.5" r="2.5" class="C"/><circle cx="2.5" cy="2.5" r="2" class="B"/></g><g transform="matrix(.695 .719 -.719 .695 88.16 126)"><circle cx="2.5" cy="2.5" r="2.5" class="C"/><circle cx="2.5" cy="2.5" r="2" class="B"/></g><g transform="matrix(.695 .719 -.719 .695 103.16 126)"><circle cx="2.5" cy="2.5" r="2.5" class="C"/><circle cx="2.5" cy="2.5" r="2" class="B"/></g><g transform="matrix(.695 .719 -.719 .695 118.16 126)"><circle cx="2.5" cy="2.5" r="2.5" class="C"/><circle cx="2.5" cy="2.5" r="2" class="B"/></g><g transform="matrix(.695 .719 -.719 .695 133.16 126)"><circle cx="2.5" cy="2.5" r="2.5" class="C"/><circle cx="2.5" cy="2.5" r="2" class="B"/></g><g transform="matrix(.695 .719 -.719 .695 148.16 126)"><circle cx="2.5" cy="2.5" r="2.5" class="C"/><circle cx="2.5" cy="2.5" r="2" class="B"/></g><g transform="matrix(.695 .719 -.719 .695 163.16 126)"><circle cx="2.5" cy="2.5" r="2.5" class="C"/><circle cx="2.5" cy="2.5" r="2" class="B"/></g><g transform="matrix(.695 .719 -.719 .695 178.16 126)"><circle cx="2.5" cy="2.5" r="2.5" class="C"/><circle cx="2.5" cy="2.5" r="2" class="B"/></g><g transform="matrix(.695 .719 -.719 .695 193.16 126)"><circle cx="2.5" cy="2.5" r="2.5" class="C"/><circle cx="2.5" cy="2.5" r="2" class="B"/></g><g transform="matrix(.695 .719 -.719 .695 208.16 126)"><circle cx="2.5" cy="2.5" r="2.5" class="C"/><circle cx="2.5" cy="2.5" r="2" class="B"/></g><g transform="matrix(.695 .719 -.719 .695 223.16 126)"><circle cx="2.5" cy="2.5" r="2.5" class="C"/><circle cx="2.5" cy="2.5" r="2" class="B"/></g><g transform="matrix(.695 .719 -.719 .695 238.16 126)"><circle cx="2.5" cy="2.5" r="2.5" class="C"/><circle cx="2.5" cy="2.5" r="2" class="B"/></g><g transform="matrix(.695 .719 -.719 .695 253.16 126)"><circle cx="2.5" cy="2.5" r="2.5" class="C"/><circle cx="2.5" cy="2.5" r="2" class="B"/></g><g transform="matrix(.695 .719 -.719 .695 268.16 126)"><circle cx="2.5" cy="2.5" r="2.5" class="C"/><circle cx="2.5" cy="2.5" r="2" class="B"/></g><g transform="matrix(.695 .719 -.719 .695 283.16 126)"><circle cx="2.5" cy="2.5" r="2.5" class="C"/><circle cx="2.5" cy="2.5" r="2" class="B"/></g><g transform="matrix(.695 .719 -.719 .695 298.16 126)"><circle cx="2.5" cy="2.5" r="2.5" class="C"/><circle cx="2.5" cy="2.5" r="2" class="B"/></g><g transform="matrix(.695 .719 -.719 .695 313.16 126)"><circle cx="2.5" cy="2.5" r="2.5" class="C"/><circle cx="2.5" cy="2.5" r="2" class="B"/></g><g transform="matrix(.695 .719 -.719 .695 328.16 126)"><circle cx="2.5" cy="2.5" r="2.5" class="C"/><circle cx="2.5" cy="2.5" r="2" class="B"/></g><g transform="matrix(.695 .719 -.719 .695 343.16 126)"><circle cx="2.5" cy="2.5" r="2.5" class="C"/><circle cx="2.5" cy="2.5" r="2" class="B"/></g><g transform="matrix(.695 .719 -.719 .695 358.16 126)"><circle cx="2.5" cy="2.5" r="2.5" class="C"/><circle cx="2.5" cy="2.5" r="2" class="B"/></g><g transform="matrix(.695 .719 -.719 .695 373.16 126)"><circle cx="2.5" cy="2.5" r="2.5" class="C"/><circle cx="2.5" cy="2.5" r="2" class="B"/></g><g transform="matrix(.695 .719 -.719 .695 388.16 126)"><circle cx="2.5" cy="2.5" r="2.5" class="C"/><circle cx="2.5" cy="2.5" r="2" class="B"/></g><g transform="matrix(.695 .719 -.719 .695 403.16 126)"><circle cx="2.5" cy="2.5" r="2.5" class="C"/><circle cx="2.5" cy="2.5" r="2" class="B"/></g><g transform="matrix(.695 .719 -.719 .695 418.16 126)"><circle cx="2.5" cy="2.5" r="2.5" class="C"/><circle cx="2.5" cy="2.5" r="2" class="B"/></g><g transform="matrix(.695 .719 -.719 .695 433.16 126)"><circle cx="2.5" cy="2.5" r="2.5" class="C"/><circle cx="2.5" cy="2.5" r="2" class="B"/></g><g transform="matrix(.695 .719 -.719 .695 448.16 126)"><circle cx="2.5" cy="2.5" r="2.5" class="C"/><circle cx="2.5" cy="2.5" r="2" class="B"/></g><g transform="matrix(.695 .719 -.719 .695 43.16 147)"><circle cx="2.5" cy="2.5" r="2.5" class="C"/><circle cx="2.5" cy="2.5" r="2" class="B"/></g><g transform="matrix(.695 .719 -.719 .695 58.16 147)"><circle cx="2.5" cy="2.5" r="2.5" class="C"/><circle cx="2.5" cy="2.5" r="2" class="B"/></g><g transform="matrix(.695 .719 -.719 .695 73.16 147)"><circle cx="2.5" cy="2.5" r="2.5" class="C"/><circle cx="2.5" cy="2.5" r="2" class="B"/></g><g transform="matrix(.695 .719 -.719 .695 88.16 147)"><circle cx="2.5" cy="2.5" r="2.5" class="C"/><circle cx="2.5" cy="2.5" r="2" class="B"/></g><g transform="matrix(.695 .719 -.719 .695 103.16 147)"><circle cx="2.5" cy="2.5" r="2.5" class="C"/><circle cx="2.5" cy="2.5" r="2" class="B"/></g><g transform="matrix(.695 .719 -.719 .695 118.16 147)"><circle cx="2.5" cy="2.5" r="2.5" class="C"/><circle cx="2.5" cy="2.5" r="2" class="B"/></g><g transform="matrix(.695 .719 -.719 .695 133.16 147)"><circle cx="2.5" cy="2.5" r="2.5" class="C"/><circle cx="2.5" cy="2.5" r="2" class="B"/></g><g transform="matrix(.695 .719 -.719 .695 148.16 147)"><circle cx="2.5" cy="2.5" r="2.5" class="C"/><circle cx="2.5" cy="2.5" r="2" class="B"/></g><g transform="matrix(.695 .719 -.719 .695 163.16 147)"><circle cx="2.5" cy="2.5" r="2.5" class="C"/><circle cx="2.5" cy="2.5" r="2" class="B"/></g><g transform="matrix(.695 .719 -.719 .695 178.16 147)"><circle cx="2.5" cy="2.5" r="2.5" class="C"/><circle cx="2.5" cy="2.5" r="2" class="B"/></g><g transform="matrix(.695 .719 -.719 .695 193.16 147)"><circle cx="2.5" cy="2.5" r="2.5" class="C"/><circle cx="2.5" cy="2.5" r="2" class="B"/></g><g transform="matrix(.695 .719 -.719 .695 208.16 147)"><circle cx="2.5" cy="2.5" r="2.5" class="C"/><circle cx="2.5" cy="2.5" r="2" class="B"/></g><g transform="matrix(.695 .719 -.719 .695 223.16 147)"><circle cx="2.5" cy="2.5" r="2.5" class="C"/><circle cx="2.5" cy="2.5" r="2" class="B"/></g><g transform="matrix(.695 .719 -.719 .695 238.16 147)"><circle cx="2.5" cy="2.5" r="2.5" class="C"/><circle cx="2.5" cy="2.5" r="2" class="B"/></g><g transform="matrix(.695 .719 -.719 .695 253.16 147)"><circle cx="2.5" cy="2.5" r="2.5" class="C"/><circle cx="2.5" cy="2.5" r="2" class="B"/></g><g transform="matrix(.695 .719 -.719 .695 268.16 147)"><circle cx="2.5" cy="2.5" r="2.5" class="C"/><circle cx="2.5" cy="2.5" r="2" class="B"/></g><g transform="matrix(.695 .719 -.719 .695 283.16 147)"><circle cx="2.5" cy="2.5" r="2.5" class="C"/><circle cx="2.5" cy="2.5" r="2" class="B"/></g><g transform="matrix(.695 .719 -.719 .695 298.16 147)"><circle cx="2.5" cy="2.5" r="2.5" class="C"/><circle cx="2.5" cy="2.5" r="2" class="B"/></g><g transform="matrix(.695 .719 -.719 .695 313.16 147)"><circle cx="2.5" cy="2.5" r="2.5" class="C"/><circle cx="2.5" cy="2.5" r="2" class="B"/></g><g transform="matrix(.695 .719 -.719 .695 328.16 147)"><circle cx="2.5" cy="2.5" r="2.5" class="C"/><circle cx="2.5" cy="2.5" r="2" class="B"/></g><g transform="matrix(.695 .719 -.719 .695 343.16 147)"><circle cx="2.5" cy="2.5" r="2.5" class="C"/><circle cx="2.5" cy="2.5" r="2" class="B"/></g><g transform="matrix(.695 .719 -.719 .695 358.16 147)"><circle cx="2.5" cy="2.5" r="2.5" class="C"/><circle cx="2.5" cy="2.5" r="2" class="B"/></g><g transform="matrix(.695 .719 -.719 .695 373.16 147)"><circle cx="2.5" cy="2.5" r="2.5" class="C"/><circle cx="2.5" cy="2.5" r="2" class="B"/></g><g transform="matrix(.695 .719 -.719 .695 388.16 147)"><circle cx="2.5" cy="2.5" r="2.5" class="C"/><circle cx="2.5" cy="2.5" r="2" class="B"/></g><g transform="matrix(.695 .719 -.719 .695 403.16 147)"><circle cx="2.5" cy="2.5" r="2.5" class="C"/><circle cx="2.5" cy="2.5" r="2" class="B"/></g><g transform="matrix(.695 .719 -.719 .695 418.16 147)"><circle cx="2.5" cy="2.5" r="2.5" class="C"/><circle cx="2.5" cy="2.5" r="2" class="B"/></g><g transform="matrix(.695 .719 -.719 .695 433.16 147)"><circle cx="2.5" cy="2.5" r="2.5" class="C"/><circle cx="2.5" cy="2.5" r="2" class="B"/></g><g transform="matrix(.695 .719 -.719 .695 448.16 147)"><circle cx="2.5" cy="2.5" r="2.5" class="C"/><circle cx="2.5" cy="2.5" r="2" class="B"/></g><g transform="matrix(.695 .719 -.719 .695 43.16 168)"><circle cx="2.5" cy="2.5" r="2.5" class="C"/><circle cx="2.5" cy="2.5" r="2" class="B"/></g><g transform="matrix(.695 .719 -.719 .695 58.16 168)"><circle cx="2.5" cy="2.5" r="2.5" class="C"/><circle cx="2.5" cy="2.5" r="2" class="B"/></g><g transform="matrix(.695 .719 -.719 .695 73.16 168)"><circle cx="2.5" cy="2.5" r="2.5" class="C"/><circle cx="2.5" cy="2.5" r="2" class="B"/></g><g transform="matrix(.695 .719 -.719 .695 88.16 168)"><circle cx="2.5" cy="2.5" r="2.5" class="C"/><circle cx="2.5" cy="2.5" r="2" class="B"/></g><g transform="matrix(.695 .719 -.719 .695 103.16 168)"><circle cx="2.5" cy="2.5" r="2.5" class="C"/><circle cx="2.5" cy="2.5" r="2" class="B"/></g><g transform="matrix(.695 .719 -.719 .695 118.16 168)"><circle cx="2.5" cy="2.5" r="2.5" class="C"/><circle cx="2.5" cy="2.5" r="2" class="B"/></g><g transform="matrix(.695 .719 -.719 .695 133.16 168)"><circle cx="2.5" cy="2.5" r="2.5" class="C"/><circle cx="2.5" cy="2.5" r="2" class="B"/></g><g transform="matrix(.695 .719 -.719 .695 148.16 168)"><circle cx="2.5" cy="2.5" r="2.5" class="C"/><circle cx="2.5" cy="2.5" r="2" class="B"/></g><g transform="matrix(.695 .719 -.719 .695 163.16 168)"><circle cx="2.5" cy="2.5" r="2.5" class="C"/><circle cx="2.5" cy="2.5" r="2" class="B"/></g><g transform="matrix(.695 .719 -.719 .695 178.16 168)"><circle cx="2.5" cy="2.5" r="2.5" class="C"/><circle cx="2.5" cy="2.5" r="2" class="B"/></g><g transform="matrix(.695 .719 -.719 .695 193.16 168)"><circle cx="2.5" cy="2.5" r="2.5" class="C"/><circle cx="2.5" cy="2.5" r="2" class="B"/></g><g transform="matrix(.695 .719 -.719 .695 208.16 168)"><circle cx="2.5" cy="2.5" r="2.5" class="C"/><circle cx="2.5" cy="2.5" r="2" class="B"/></g><g transform="matrix(.695 .719 -.719 .695 223.16 168)"><circle cx="2.5" cy="2.5" r="2.5" class="C"/><circle cx="2.5" cy="2.5" r="2" class="B"/></g><g transform="matrix(.695 .719 -.719 .695 238.16 168)"><circle cx="2.5" cy="2.5" r="2.5" class="C"/><circle cx="2.5" cy="2.5" r="2" class="B"/></g><g transform="matrix(.695 .719 -.719 .695 253.16 168)"><circle cx="2.5" cy="2.5" r="2.5" class="C"/><circle cx="2.5" cy="2.5" r="2" class="B"/></g><g transform="matrix(.695 .719 -.719 .695 268.16 168)"><circle cx="2.5" cy="2.5" r="2.5" class="C"/><circle cx="2.5" cy="2.5" r="2" class="B"/></g><g transform="matrix(.695 .719 -.719 .695 283.16 168)"><circle cx="2.5" cy="2.5" r="2.5" class="C"/><circle cx="2.5" cy="2.5" r="2" class="B"/></g><g transform="matrix(.695 .719 -.719 .695 298.16 168)"><circle cx="2.5" cy="2.5" r="2.5" class="C"/><circle cx="2.5" cy="2.5" r="2" class="B"/></g><g transform="matrix(.695 .719 -.719 .695 313.16 168)"><circle cx="2.5" cy="2.5" r="2.5" class="C"/><circle cx="2.5" cy="2.5" r="2" class="B"/></g><g transform="matrix(.695 .719 -.719 .695 328.16 168)"><circle cx="2.5" cy="2.5" r="2.5" class="C"/><circle cx="2.5" cy="2.5" r="2" class="B"/></g><g transform="matrix(.695 .719 -.719 .695 343.16 168)"><circle cx="2.5" cy="2.5" r="2.5" class="C"/><circle cx="2.5" cy="2.5" r="2" class="B"/></g><g transform="matrix(.695 .719 -.719 .695 358.16 168)"><circle cx="2.5" cy="2.5" r="2.5" class="C"/><circle cx="2.5" cy="2.5" r="2" class="B"/></g><g transform="matrix(.695 .719 -.719 .695 373.16 168)"><circle cx="2.5" cy="2.5" r="2.5" class="C"/><circle cx="2.5" cy="2.5" r="2" class="B"/></g><g transform="matrix(.695 .719 -.719 .695 388.16 168)"><circle cx="2.5" cy="2.5" r="2.5" class="C"/><circle cx="2.5" cy="2.5" r="2" class="B"/></g><g transform="matrix(.695 .719 -.719 .695 403.16 168)"><circle cx="2.5" cy="2.5" r="2.5" class="C"/><circle cx="2.5" cy="2.5" r="2" class="B"/></g><g transform="matrix(.695 .719 -.719 .695 418.16 168)"><circle cx="2.5" cy="2.5" r="2.5" class="C"/><circle cx="2.5" cy="2.5" r="2" class="B"/></g><g transform="matrix(.695 .719 -.719 .695 433.16 168)"><circle cx="2.5" cy="2.5" r="2.5" class="C"/><circle cx="2.5" cy="2.5" r="2" class="B"/></g><g transform="matrix(.695 .719 -.719 .695 448.16 168)"><circle cx="2.5" cy="2.5" r="2.5" class="C"/><circle cx="2.5" cy="2.5" r="2" class="B"/></g><g transform="matrix(.695 .719 -.719 .695 43.16 189)"><circle cx="2.5" cy="2.5" r="2.5" class="C"/><circle cx="2.5" cy="2.5" r="2" class="B"/></g><g transform="matrix(.695 .719 -.719 .695 58.16 189)"><circle cx="2.5" cy="2.5" r="2.5" class="C"/><circle cx="2.5" cy="2.5" r="2" class="B"/></g><g transform="matrix(.695 .719 -.719 .695 73.16 189)"><circle cx="2.5" cy="2.5" r="2.5" class="C"/><circle cx="2.5" cy="2.5" r="2" class="B"/></g><g transform="matrix(.695 .719 -.719 .695 88.16 189)"><circle cx="2.5" cy="2.5" r="2.5" class="C"/><circle cx="2.5" cy="2.5" r="2" class="B"/></g><g transform="matrix(.695 .719 -.719 .695 103.16 189)"><circle cx="2.5" cy="2.5" r="2.5" class="C"/><circle cx="2.5" cy="2.5" r="2" class="B"/></g><g transform="matrix(.695 .719 -.719 .695 118.16 189)"><circle cx="2.5" cy="2.5" r="2.5" class="C"/><circle cx="2.5" cy="2.5" r="2" class="B"/></g><g transform="matrix(.695 .719 -.719 .695 133.16 189)"><circle cx="2.5" cy="2.5" r="2.5" class="C"/><circle cx="2.5" cy="2.5" r="2" class="B"/></g><g transform="matrix(.695 .719 -.719 .695 148.16 189)"><circle cx="2.5" cy="2.5" r="2.5" class="C"/><circle cx="2.5" cy="2.5" r="2" class="B"/></g><g transform="matrix(.695 .719 -.719 .695 163.16 189)"><circle cx="2.5" cy="2.5" r="2.5" class="C"/><circle cx="2.5" cy="2.5" r="2" class="B"/></g><g transform="matrix(.695 .719 -.719 .695 178.16 189)"><circle cx="2.5" cy="2.5" r="2.5" class="C"/><circle cx="2.5" cy="2.5" r="2" class="B"/></g><g transform="matrix(.695 .719 -.719 .695 193.16 189)"><circle cx="2.5" cy="2.5" r="2.5" class="C"/><circle cx="2.5" cy="2.5" r="2" class="B"/></g><g transform="matrix(.695 .719 -.719 .695 208.16 189)"><circle cx="2.5" cy="2.5" r="2.5" class="C"/><circle cx="2.5" cy="2.5" r="2" class="B"/></g><g transform="matrix(.695 .719 -.719 .695 223.16 189)"><circle cx="2.5" cy="2.5" r="2.5" class="C"/><circle cx="2.5" cy="2.5" r="2" class="B"/></g><g transform="matrix(.695 .719 -.719 .695 238.16 189)"><circle cx="2.5" cy="2.5" r="2.5" class="C"/><circle cx="2.5" cy="2.5" r="2" class="B"/></g><g transform="matrix(.695 .719 -.719 .695 253.16 189)"><circle cx="2.5" cy="2.5" r="2.5" class="C"/><circle cx="2.5" cy="2.5" r="2" class="B"/></g><g transform="matrix(.695 .719 -.719 .695 268.16 189)"><circle cx="2.5" cy="2.5" r="2.5" class="C"/><circle cx="2.5" cy="2.5" r="2" class="B"/></g><g transform="matrix(.695 .719 -.719 .695 283.16 189)"><circle cx="2.5" cy="2.5" r="2.5" class="C"/><circle cx="2.5" cy="2.5" r="2" class="B"/></g><g transform="matrix(.695 .719 -.719 .695 298.16 189)"><circle cx="2.5" cy="2.5" r="2.5" class="C"/><circle cx="2.5" cy="2.5" r="2" class="B"/></g><g transform="matrix(.695 .719 -.719 .695 313.16 189)"><circle cx="2.5" cy="2.5" r="2.5" class="C"/><circle cx="2.5" cy="2.5" r="2" class="B"/></g><g transform="matrix(.695 .719 -.719 .695 328.16 189)"><circle cx="2.5" cy="2.5" r="2.5" class="C"/><circle cx="2.5" cy="2.5" r="2" class="B"/></g><g transform="matrix(.695 .719 -.719 .695 343.16 189)"><circle cx="2.5" cy="2.5" r="2.5" class="C"/><circle cx="2.5" cy="2.5" r="2" class="B"/></g><g transform="matrix(.695 .719 -.719 .695 358.16 189)"><circle cx="2.5" cy="2.5" r="2.5" class="C"/><circle cx="2.5" cy="2.5" r="2" class="B"/></g><g transform="matrix(.695 .719 -.719 .695 373.16 189)"><circle cx="2.5" cy="2.5" r="2.5" class="C"/><circle cx="2.5" cy="2.5" r="2" class="B"/></g><g transform="matrix(.695 .719 -.719 .695 388.16 189)"><circle cx="2.5" cy="2.5" r="2.5" class="C"/><circle cx="2.5" cy="2.5" r="2" class="B"/></g><g transform="matrix(.695 .719 -.719 .695 403.16 189)"><circle cx="2.5" cy="2.5" r="2.5" class="C"/><circle cx="2.5" cy="2.5" r="2" class="B"/></g><g transform="matrix(.695 .719 -.719 .695 418.16 189)"><circle cx="2.5" cy="2.5" r="2.5" class="C"/><circle cx="2.5" cy="2.5" r="2" class="B"/></g><g transform="matrix(.695 .719 -.719 .695 433.16 189)"><circle cx="2.5" cy="2.5" r="2.5" class="C"/><circle cx="2.5" cy="2.5" r="2" class="B"/></g><g transform="matrix(.695 .719 -.719 .695 448.16 189)"><circle cx="2.5" cy="2.5" r="2.5" class="C"/><circle cx="2.5" cy="2.5" r="2" class="B"/></g><g transform="matrix(.695 .719 -.719 .695 43.16 210)"><circle cx="2.5" cy="2.5" r="2.5" class="C"/><circle cx="2.5" cy="2.5" r="2" class="B"/></g><g transform="matrix(.695 .719 -.719 .695 58.16 210)"><circle cx="2.5" cy="2.5" r="2.5" class="C"/><circle cx="2.5" cy="2.5" r="2" class="B"/></g><g transform="matrix(.695 .719 -.719 .695 73.16 210)"><circle cx="2.5" cy="2.5" r="2.5" class="C"/><circle cx="2.5" cy="2.5" r="2" class="B"/></g><g transform="matrix(.695 .719 -.719 .695 88.16 210)"><circle cx="2.5" cy="2.5" r="2.5" class="C"/><circle cx="2.5" cy="2.5" r="2" class="B"/></g><g transform="matrix(.695 .719 -.719 .695 103.16 210)"><circle cx="2.5" cy="2.5" r="2.5" class="C"/><circle cx="2.5" cy="2.5" r="2" class="B"/></g><g transform="matrix(.695 .719 -.719 .695 118.16 210)"><circle cx="2.5" cy="2.5" r="2.5" class="C"/><circle cx="2.5" cy="2.5" r="2" class="B"/></g><g transform="matrix(.695 .719 -.719 .695 133.16 210)"><circle cx="2.5" cy="2.5" r="2.5" class="C"/><circle cx="2.5" cy="2.5" r="2" class="B"/></g><g transform="matrix(.695 .719 -.719 .695 148.16 210)"><circle cx="2.5" cy="2.5" r="2.5" class="C"/><circle cx="2.5" cy="2.5" r="2" class="B"/></g><g transform="matrix(.695 .719 -.719 .695 163.16 210)"><circle cx="2.5" cy="2.5" r="2.5" class="C"/><circle cx="2.5" cy="2.5" r="2" class="B"/></g><g transform="matrix(.695 .719 -.719 .695 178.16 210)"><circle cx="2.5" cy="2.5" r="2.5" class="C"/><circle cx="2.5" cy="2.5" r="2" class="B"/></g><g transform="matrix(.695 .719 -.719 .695 193.16 210)"><circle cx="2.5" cy="2.5" r="2.5" class="C"/><circle cx="2.5" cy="2.5" r="2" class="B"/></g><g transform="matrix(.695 .719 -.719 .695 208.16 210)"><circle cx="2.5" cy="2.5" r="2.5" class="C"/><circle cx="2.5" cy="2.5" r="2" class="B"/></g><g transform="matrix(.695 .719 -.719 .695 223.16 210)"><circle cx="2.5" cy="2.5" r="2.5" class="C"/><circle cx="2.5" cy="2.5" r="2" class="B"/></g><g transform="matrix(.695 .719 -.719 .695 238.16 210)"><circle cx="2.5" cy="2.5" r="2.5" class="C"/><circle cx="2.5" cy="2.5" r="2" class="B"/></g><g transform="matrix(.695 .719 -.719 .695 253.16 210)"><circle cx="2.5" cy="2.5" r="2.5" class="C"/><circle cx="2.5" cy="2.5" r="2" class="B"/></g><g transform="matrix(.695 .719 -.719 .695 268.16 210)"><circle cx="2.5" cy="2.5" r="2.5" class="C"/><circle cx="2.5" cy="2.5" r="2" class="B"/></g><g transform="matrix(.695 .719 -.719 .695 283.16 210)"><circle cx="2.5" cy="2.5" r="2.5" class="C"/><circle cx="2.5" cy="2.5" r="2" class="B"/></g><g transform="matrix(.695 .719 -.719 .695 298.16 210)"><circle cx="2.5" cy="2.5" r="2.5" class="C"/><circle cx="2.5" cy="2.5" r="2" class="B"/></g><g transform="matrix(.695 .719 -.719 .695 313.16 210)"><circle cx="2.5" cy="2.5" r="2.5" class="C"/><circle cx="2.5" cy="2.5" r="2" class="B"/></g><g transform="matrix(.695 .719 -.719 .695 328.16 210)"><circle cx="2.5" cy="2.5" r="2.5" class="C"/><circle cx="2.5" cy="2.5" r="2" class="B"/></g><g transform="matrix(.695 .719 -.719 .695 343.16 210)"><circle cx="2.5" cy="2.5" r="2.5" class="C"/><circle cx="2.5" cy="2.5" r="2" class="B"/></g><g transform="matrix(.695 .719 -.719 .695 358.16 210)"><circle cx="2.5" cy="2.5" r="2.5" class="C"/><circle cx="2.5" cy="2.5" r="2" class="B"/></g><g transform="matrix(.695 .719 -.719 .695 373.16 210)"><circle cx="2.5" cy="2.5" r="2.5" class="C"/><circle cx="2.5" cy="2.5" r="2" class="B"/></g><g transform="matrix(.695 .719 -.719 .695 388.16 210)"><circle cx="2.5" cy="2.5" r="2.5" class="C"/><circle cx="2.5" cy="2.5" r="2" class="B"/></g><g transform="matrix(.695 .719 -.719 .695 403.16 210)"><circle cx="2.5" cy="2.5" r="2.5" class="C"/><circle cx="2.5" cy="2.5" r="2" class="B"/></g><g transform="matrix(.695 .719 -.719 .695 418.16 210)"><circle cx="2.5" cy="2.5" r="2.5" class="C"/><circle cx="2.5" cy="2.5" r="2" class="B"/></g><g transform="matrix(.695 .719 -.719 .695 433.16 210)"><circle cx="2.5" cy="2.5" r="2.5" class="C"/><circle cx="2.5" cy="2.5" r="2" class="B"/></g><g transform="matrix(.695 .719 -.719 .695 448.16 210)"><circle cx="2.5" cy="2.5" r="2.5" class="C"/><circle cx="2.5" cy="2.5" r="2" class="B"/></g><g transform="matrix(.695 .719 -.719 .695 43.16 231)"><circle cx="2.5" cy="2.5" r="2.5" class="C"/><circle cx="2.5" cy="2.5" r="2" class="B"/></g><g transform="matrix(.695 .719 -.719 .695 58.16 231)"><circle cx="2.5" cy="2.5" r="2.5" class="C"/><circle cx="2.5" cy="2.5" r="2" class="B"/></g><g transform="matrix(.695 .719 -.719 .695 73.16 231)"><circle cx="2.5" cy="2.5" r="2.5" class="C"/><circle cx="2.5" cy="2.5" r="2" class="B"/></g><g transform="matrix(.695 .719 -.719 .695 88.16 231)"><circle cx="2.5" cy="2.5" r="2.5" class="C"/><circle cx="2.5" cy="2.5" r="2" class="B"/></g><g transform="matrix(.695 .719 -.719 .695 103.16 231)"><circle cx="2.5" cy="2.5" r="2.5" class="C"/><circle cx="2.5" cy="2.5" r="2" class="B"/></g><g transform="matrix(.695 .719 -.719 .695 118.16 231)"><circle cx="2.5" cy="2.5" r="2.5" class="C"/><circle cx="2.5" cy="2.5" r="2" class="B"/></g><g transform="matrix(.695 .719 -.719 .695 133.16 231)"><circle cx="2.5" cy="2.5" r="2.5" class="C"/><circle cx="2.5" cy="2.5" r="2" class="B"/></g><g transform="matrix(.695 .719 -.719 .695 148.16 231)"><circle cx="2.5" cy="2.5" r="2.5" class="C"/><circle cx="2.5" cy="2.5" r="2" class="B"/></g><g transform="matrix(.695 .719 -.719 .695 163.16 231)"><circle cx="2.5" cy="2.5" r="2.5" class="C"/><circle cx="2.5" cy="2.5" r="2" class="B"/></g><g transform="matrix(.695 .719 -.719 .695 178.16 231)"><circle cx="2.5" cy="2.5" r="2.5" class="C"/><circle cx="2.5" cy="2.5" r="2" class="B"/></g><g transform="matrix(.695 .719 -.719 .695 193.16 231)"><circle cx="2.5" cy="2.5" r="2.5" class="C"/><circle cx="2.5" cy="2.5" r="2" class="B"/></g><g transform="matrix(.695 .719 -.719 .695 208.16 231)"><circle cx="2.5" cy="2.5" r="2.5" class="C"/><circle cx="2.5" cy="2.5" r="2" class="B"/></g><g transform="matrix(.695 .719 -.719 .695 223.16 231)"><circle cx="2.5" cy="2.5" r="2.5" class="C"/><circle cx="2.5" cy="2.5" r="2" class="B"/></g><g transform="matrix(.695 .719 -.719 .695 238.16 231)"><circle cx="2.5" cy="2.5" r="2.5" class="C"/><circle cx="2.5" cy="2.5" r="2" class="B"/></g><g transform="matrix(.695 .719 -.719 .695 253.16 231)"><circle cx="2.5" cy="2.5" r="2.5" class="C"/><circle cx="2.5" cy="2.5" r="2" class="B"/></g><g transform="matrix(.695 .719 -.719 .695 268.16 231)"><circle cx="2.5" cy="2.5" r="2.5" class="C"/><circle cx="2.5" cy="2.5" r="2" class="B"/></g><g transform="matrix(.695 .719 -.719 .695 283.16 231)"><circle cx="2.5" cy="2.5" r="2.5" class="C"/><circle cx="2.5" cy="2.5" r="2" class="B"/></g><g transform="matrix(.695 .719 -.719 .695 298.16 231)"><circle cx="2.5" cy="2.5" r="2.5" class="C"/><circle cx="2.5" cy="2.5" r="2" class="B"/></g><g transform="matrix(.695 .719 -.719 .695 313.16 231)"><circle cx="2.5" cy="2.5" r="2.5" class="C"/><circle cx="2.5" cy="2.5" r="2" class="B"/></g><g transform="matrix(.695 .719 -.719 .695 328.16 231)"><circle cx="2.5" cy="2.5" r="2.5" class="C"/><circle cx="2.5" cy="2.5" r="2" class="B"/></g><g transform="matrix(.695 .719 -.719 .695 343.16 231)"><circle cx="2.5" cy="2.5" r="2.5" class="C"/><circle cx="2.5" cy="2.5" r="2" class="B"/></g><g transform="matrix(.695 .719 -.719 .695 358.16 231)"><circle cx="2.5" cy="2.5" r="2.5" class="C"/><circle cx="2.5" cy="2.5" r="2" class="B"/></g><g transform="matrix(.695 .719 -.719 .695 373.16 231)"><circle cx="2.5" cy="2.5" r="2.5" class="C"/><circle cx="2.5" cy="2.5" r="2" class="B"/></g><g transform="matrix(.695 .719 -.719 .695 388.16 231)"><circle cx="2.5" cy="2.5" r="2.5" class="C"/><circle cx="2.5" cy="2.5" r="2" class="B"/></g><g transform="matrix(.695 .719 -.719 .695 403.16 231)"><circle cx="2.5" cy="2.5" r="2.5" class="C"/><circle cx="2.5" cy="2.5" r="2" class="B"/></g><g transform="matrix(.695 .719 -.719 .695 418.16 231)"><circle cx="2.5" cy="2.5" r="2.5" class="C"/><circle cx="2.5" cy="2.5" r="2" class="B"/></g><g transform="matrix(.695 .719 -.719 .695 433.16 231)"><circle cx="2.5" cy="2.5" r="2.5" class="C"/><circle cx="2.5" cy="2.5" r="2" class="B"/></g><g transform="matrix(.695 .719 -.719 .695 448.16 231)"><circle cx="2.5" cy="2.5" r="2.5" class="C"/><circle cx="2.5" cy="2.5" r="2" class="B"/></g><g transform="matrix(.695 .719 -.719 .695 43.16 252)"><circle cx="2.5" cy="2.5" r="2.5" class="C"/><circle cx="2.5" cy="2.5" r="2" class="B"/></g><g transform="matrix(.695 .719 -.719 .695 58.16 252)"><circle cx="2.5" cy="2.5" r="2.5" class="C"/><circle cx="2.5" cy="2.5" r="2" class="B"/></g><g transform="matrix(.695 .719 -.719 .695 73.16 252)"><circle cx="2.5" cy="2.5" r="2.5" class="C"/><circle cx="2.5" cy="2.5" r="2" class="B"/></g><g transform="matrix(.695 .719 -.719 .695 88.16 252)"><circle cx="2.5" cy="2.5" r="2.5" class="C"/><circle cx="2.5" cy="2.5" r="2" class="B"/></g><g transform="matrix(.695 .719 -.719 .695 103.16 252)"><circle cx="2.5" cy="2.5" r="2.5" class="C"/><circle cx="2.5" cy="2.5" r="2" class="B"/></g><g transform="matrix(.695 .719 -.719 .695 118.16 252)"><circle cx="2.5" cy="2.5" r="2.5" class="C"/><circle cx="2.5" cy="2.5" r="2" class="B"/></g><g transform="matrix(.695 .719 -.719 .695 133.16 252)"><circle cx="2.5" cy="2.5" r="2.5" class="C"/><circle cx="2.5" cy="2.5" r="2" class="B"/></g><g transform="matrix(.695 .719 -.719 .695 148.16 252)"><circle cx="2.5" cy="2.5" r="2.5" class="C"/><circle cx="2.5" cy="2.5" r="2" class="B"/></g><g transform="matrix(.695 .719 -.719 .695 163.16 252)"><circle cx="2.5" cy="2.5" r="2.5" class="C"/><circle cx="2.5" cy="2.5" r="2" class="B"/></g><g transform="matrix(.695 .719 -.719 .695 178.16 252)"><circle cx="2.5" cy="2.5" r="2.5" class="C"/><circle cx="2.5" cy="2.5" r="2" class="B"/></g><g transform="matrix(.695 .719 -.719 .695 193.16 252)"><circle cx="2.5" cy="2.5" r="2.5" class="C"/><circle cx="2.5" cy="2.5" r="2" class="B"/></g><g transform="matrix(.695 .719 -.719 .695 208.16 252)"><circle cx="2.5" cy="2.5" r="2.5" class="C"/><circle cx="2.5" cy="2.5" r="2" class="B"/></g><g transform="matrix(.695 .719 -.719 .695 223.16 252)"><circle cx="2.5" cy="2.5" r="2.5" class="C"/><circle cx="2.5" cy="2.5" r="2" class="B"/></g><g transform="matrix(.695 .719 -.719 .695 238.16 252)"><circle cx="2.5" cy="2.5" r="2.5" class="C"/><circle cx="2.5" cy="2.5" r="2" class="B"/></g><g transform="matrix(.695 .719 -.719 .695 253.16 252)"><circle cx="2.5" cy="2.5" r="2.5" class="C"/><circle cx="2.5" cy="2.5" r="2" class="B"/></g><g transform="matrix(.695 .719 -.719 .695 268.16 252)"><circle cx="2.5" cy="2.5" r="2.5" class="C"/><circle cx="2.5" cy="2.5" r="2" class="B"/></g><g transform="matrix(.695 .719 -.719 .695 283.16 252)"><circle cx="2.5" cy="2.5" r="2.5" class="C"/><circle cx="2.5" cy="2.5" r="2" class="B"/></g><g transform="matrix(.695 .719 -.719 .695 298.16 252)"><circle cx="2.5" cy="2.5" r="2.5" class="C"/><circle cx="2.5" cy="2.5" r="2" class="B"/></g><g transform="matrix(.695 .719 -.719 .695 313.16 252)"><circle cx="2.5" cy="2.5" r="2.5" class="C"/><circle cx="2.5" cy="2.5" r="2" class="B"/></g><g transform="matrix(.695 .719 -.719 .695 328.16 252)"><circle cx="2.5" cy="2.5" r="2.5" class="C"/><circle cx="2.5" cy="2.5" r="2" class="B"/></g><g transform="matrix(.695 .719 -.719 .695 343.16 252)"><circle cx="2.5" cy="2.5" r="2.5" class="C"/><circle cx="2.5" cy="2.5" r="2" class="B"/></g><g transform="matrix(.695 .719 -.719 .695 358.16 252)"><circle cx="2.5" cy="2.5" r="2.5" class="C"/><circle cx="2.5" cy="2.5" r="2" class="B"/></g><g transform="matrix(.695 .719 -.719 .695 373.16 252)"><circle cx="2.5" cy="2.5" r="2.5" class="C"/><circle cx="2.5" cy="2.5" r="2" class="B"/></g><g transform="matrix(.695 .719 -.719 .695 388.16 252)"><circle cx="2.5" cy="2.5" r="2.5" class="C"/><circle cx="2.5" cy="2.5" r="2" class="B"/></g><g transform="matrix(.695 .719 -.719 .695 403.16 252)"><circle cx="2.5" cy="2.5" r="2.5" class="C"/><circle cx="2.5" cy="2.5" r="2" class="B"/></g><g transform="matrix(.695 .719 -.719 .695 418.16 252)"><circle cx="2.5" cy="2.5" r="2.5" class="C"/><circle cx="2.5" cy="2.5" r="2" class="B"/></g><g transform="matrix(.695 .719 -.719 .695 433.16 252)"><circle cx="2.5" cy="2.5" r="2.5" class="C"/><circle cx="2.5" cy="2.5" r="2" class="B"/></g><g transform="matrix(.695 .719 -.719 .695 448.16 252)"><circle cx="2.5" cy="2.5" r="2.5" class="C"/><circle cx="2.5" cy="2.5" r="2" class="B"/></g><g transform="matrix(.695 .719 -.719 .695 43.16 273)"><circle cx="2.5" cy="2.5" r="2.5" class="C"/><circle cx="2.5" cy="2.5" r="2" class="B"/></g><g transform="matrix(.695 .719 -.719 .695 58.16 273)"><circle cx="2.5" cy="2.5" r="2.5" class="C"/><circle cx="2.5" cy="2.5" r="2" class="B"/></g><g transform="matrix(.695 .719 -.719 .695 73.16 273)"><circle cx="2.5" cy="2.5" r="2.5" class="C"/><circle cx="2.5" cy="2.5" r="2" class="B"/></g><g transform="matrix(.695 .719 -.719 .695 88.16 273)"><circle cx="2.5" cy="2.5" r="2.5" class="C"/><circle cx="2.5" cy="2.5" r="2" class="B"/></g><g transform="matrix(.695 .719 -.719 .695 103.16 273)"><circle cx="2.5" cy="2.5" r="2.5" class="C"/><circle cx="2.5" cy="2.5" r="2" class="B"/></g><g transform="matrix(.695 .719 -.719 .695 118.16 273)"><circle cx="2.5" cy="2.5" r="2.5" class="C"/><circle cx="2.5" cy="2.5" r="2" class="B"/></g><g transform="matrix(.695 .719 -.719 .695 133.16 273)"><circle cx="2.5" cy="2.5" r="2.5" class="C"/><circle cx="2.5" cy="2.5" r="2" class="B"/></g><g transform="matrix(.695 .719 -.719 .695 148.16 273)"><circle cx="2.5" cy="2.5" r="2.5" class="C"/><circle cx="2.5" cy="2.5" r="2" class="B"/></g><g transform="matrix(.695 .719 -.719 .695 163.16 273)"><circle cx="2.5" cy="2.5" r="2.5" class="C"/><circle cx="2.5" cy="2.5" r="2" class="B"/></g><g transform="matrix(.695 .719 -.719 .695 178.16 273)"><circle cx="2.5" cy="2.5" r="2.5" class="C"/><circle cx="2.5" cy="2.5" r="2" class="B"/></g><g transform="matrix(.695 .719 -.719 .695 193.16 273)"><circle cx="2.5" cy="2.5" r="2.5" class="C"/><circle cx="2.5" cy="2.5" r="2" class="B"/></g><g transform="matrix(.695 .719 -.719 .695 208.16 273)"><circle cx="2.5" cy="2.5" r="2.5" class="C"/><circle cx="2.5" cy="2.5" r="2" class="B"/></g><g transform="matrix(.695 .719 -.719 .695 223.16 273)"><circle cx="2.5" cy="2.5" r="2.5" class="C"/><circle cx="2.5" cy="2.5" r="2" class="B"/></g><g transform="matrix(.695 .719 -.719 .695 238.16 273)"><circle cx="2.5" cy="2.5" r="2.5" class="C"/><circle cx="2.5" cy="2.5" r="2" class="B"/></g><g transform="matrix(.695 .719 -.719 .695 253.16 273)"><circle cx="2.5" cy="2.5" r="2.5" class="C"/><circle cx="2.5" cy="2.5" r="2" class="B"/></g><g transform="matrix(.695 .719 -.719 .695 268.16 273)"><circle cx="2.5" cy="2.5" r="2.5" class="C"/><circle cx="2.5" cy="2.5" r="2" class="B"/></g><g transform="matrix(.695 .719 -.719 .695 283.16 273)"><circle cx="2.5" cy="2.5" r="2.5" class="C"/><circle cx="2.5" cy="2.5" r="2" class="B"/></g><g transform="matrix(.695 .719 -.719 .695 298.16 273)"><circle cx="2.5" cy="2.5" r="2.5" class="C"/><circle cx="2.5" cy="2.5" r="2" class="B"/></g><g transform="matrix(.695 .719 -.719 .695 313.16 273)"><circle cx="2.5" cy="2.5" r="2.5" class="C"/><circle cx="2.5" cy="2.5" r="2" class="B"/></g><g transform="matrix(.695 .719 -.719 .695 328.16 273)"><circle cx="2.5" cy="2.5" r="2.5" class="C"/><circle cx="2.5" cy="2.5" r="2" class="B"/></g><g transform="matrix(.695 .719 -.719 .695 343.16 273)"><circle cx="2.5" cy="2.5" r="2.5" class="C"/><circle cx="2.5" cy="2.5" r="2" class="B"/></g><g transform="matrix(.695 .719 -.719 .695 358.16 273)"><circle cx="2.5" cy="2.5" r="2.5" class="C"/><circle cx="2.5" cy="2.5" r="2" class="B"/></g><g transform="matrix(.695 .719 -.719 .695 373.16 273)"><circle cx="2.5" cy="2.5" r="2.5" class="C"/><circle cx="2.5" cy="2.5" r="2" class="B"/></g><g transform="matrix(.695 .719 -.719 .695 388.16 273)"><circle cx="2.5" cy="2.5" r="2.5" class="C"/><circle cx="2.5" cy="2.5" r="2" class="B"/></g><g transform="matrix(.695 .719 -.719 .695 403.16 273)"><circle cx="2.5" cy="2.5" r="2.5" class="C"/><circle cx="2.5" cy="2.5" r="2" class="B"/></g><g transform="matrix(.695 .719 -.719 .695 418.16 273)"><circle cx="2.5" cy="2.5" r="2.5" class="C"/><circle cx="2.5" cy="2.5" r="2" class="B"/></g><g transform="matrix(.695 .719 -.719 .695 433.16 273)"><circle cx="2.5" cy="2.5" r="2.5" class="C"/><circle cx="2.5" cy="2.5" r="2" class="B"/></g><g transform="matrix(.695 .719 -.719 .695 448.16 273)"><circle cx="2.5" cy="2.5" r="2.5" class="C"/><circle cx="2.5" cy="2.5" r="2" class="B"/></g><g transform="matrix(.695 .719 -.719 .695 43.16 294)"><circle cx="2.5" cy="2.5" r="2.5" class="C"/><circle cx="2.5" cy="2.5" r="2" class="B"/></g><g transform="matrix(.695 .719 -.719 .695 58.16 294)"><circle cx="2.5" cy="2.5" r="2.5" class="C"/><circle cx="2.5" cy="2.5" r="2" class="B"/></g><g transform="matrix(.695 .719 -.719 .695 73.16 294)"><circle cx="2.5" cy="2.5" r="2.5" class="C"/><circle cx="2.5" cy="2.5" r="2" class="B"/></g><g transform="matrix(.695 .719 -.719 .695 88.16 294)"><circle cx="2.5" cy="2.5" r="2.5" class="C"/><circle cx="2.5" cy="2.5" r="2" class="B"/></g><g transform="matrix(.695 .719 -.719 .695 103.16 294)"><circle cx="2.5" cy="2.5" r="2.5" class="C"/><circle cx="2.5" cy="2.5" r="2" class="B"/></g><g transform="matrix(.695 .719 -.719 .695 118.16 294)"><circle cx="2.5" cy="2.5" r="2.5" class="C"/><circle cx="2.5" cy="2.5" r="2" class="B"/></g><g transform="matrix(.695 .719 -.719 .695 133.16 294)"><circle cx="2.5" cy="2.5" r="2.5" class="C"/><circle cx="2.5" cy="2.5" r="2" class="B"/></g><g transform="matrix(.695 .719 -.719 .695 148.16 294)"><circle cx="2.5" cy="2.5" r="2.5" class="C"/><circle cx="2.5" cy="2.5" r="2" class="B"/></g><g transform="matrix(.695 .719 -.719 .695 163.16 294)"><circle cx="2.5" cy="2.5" r="2.5" class="C"/><circle cx="2.5" cy="2.5" r="2" class="B"/></g><g transform="matrix(.695 .719 -.719 .695 178.16 294)"><circle cx="2.5" cy="2.5" r="2.5" class="C"/><circle cx="2.5" cy="2.5" r="2" class="B"/></g><g transform="matrix(.695 .719 -.719 .695 193.16 294)"><circle cx="2.5" cy="2.5" r="2.5" class="C"/><circle cx="2.5" cy="2.5" r="2" class="B"/></g><g transform="matrix(.695 .719 -.719 .695 208.16 294)"><circle cx="2.5" cy="2.5" r="2.5" class="C"/><circle cx="2.5" cy="2.5" r="2" class="B"/></g><g transform="matrix(.695 .719 -.719 .695 223.16 294)"><circle cx="2.5" cy="2.5" r="2.5" class="C"/><circle cx="2.5" cy="2.5" r="2" class="B"/></g><g transform="matrix(.695 .719 -.719 .695 238.16 294)"><circle cx="2.5" cy="2.5" r="2.5" class="C"/><circle cx="2.5" cy="2.5" r="2" class="B"/></g><g transform="matrix(.695 .719 -.719 .695 253.16 294)"><circle cx="2.5" cy="2.5" r="2.5" class="C"/><circle cx="2.5" cy="2.5" r="2" class="B"/></g><g transform="matrix(.695 .719 -.719 .695 268.16 294)"><circle cx="2.5" cy="2.5" r="2.5" class="C"/><circle cx="2.5" cy="2.5" r="2" class="B"/></g><g transform="matrix(.695 .719 -.719 .695 283.16 294)"><circle cx="2.5" cy="2.5" r="2.5" class="C"/><circle cx="2.5" cy="2.5" r="2" class="B"/></g><g transform="matrix(.695 .719 -.719 .695 298.16 294)"><circle cx="2.5" cy="2.5" r="2.5" class="C"/><circle cx="2.5" cy="2.5" r="2" class="B"/></g><g transform="matrix(.695 .719 -.719 .695 313.16 294)"><circle cx="2.5" cy="2.5" r="2.5" class="C"/><circle cx="2.5" cy="2.5" r="2" class="B"/></g><g transform="matrix(.695 .719 -.719 .695 328.16 294)"><circle cx="2.5" cy="2.5" r="2.5" class="C"/><circle cx="2.5" cy="2.5" r="2" class="B"/></g><g transform="matrix(.695 .719 -.719 .695 343.16 294)"><circle cx="2.5" cy="2.5" r="2.5" class="C"/><circle cx="2.5" cy="2.5" r="2" class="B"/></g><g transform="matrix(.695 .719 -.719 .695 358.16 294)"><circle cx="2.5" cy="2.5" r="2.5" class="C"/><circle cx="2.5" cy="2.5" r="2" class="B"/></g><g transform="matrix(.695 .719 -.719 .695 373.16 294)"><circle cx="2.5" cy="2.5" r="2.5" class="C"/><circle cx="2.5" cy="2.5" r="2" class="B"/></g><g transform="matrix(.695 .719 -.719 .695 388.16 294)"><circle cx="2.5" cy="2.5" r="2.5" class="C"/><circle cx="2.5" cy="2.5" r="2" class="B"/></g><g transform="matrix(.695 .719 -.719 .695 403.16 294)"><circle cx="2.5" cy="2.5" r="2.5" class="C"/><circle cx="2.5" cy="2.5" r="2" class="B"/></g><g transform="matrix(.695 .719 -.719 .695 418.16 294)"><circle cx="2.5" cy="2.5" r="2.5" class="C"/><circle cx="2.5" cy="2.5" r="2" class="B"/></g><g transform="matrix(.695 .719 -.719 .695 433.16 294)"><circle cx="2.5" cy="2.5" r="2.5" class="C"/><circle cx="2.5" cy="2.5" r="2" class="B"/></g><g transform="matrix(.695 .719 -.719 .695 448.16 294)"><circle cx="2.5" cy="2.5" r="2.5" class="C"/><circle cx="2.5" cy="2.5" r="2" class="B"/></g><g transform="matrix(.695 .719 -.719 .695 43.16 315)"><circle cx="2.5" cy="2.5" r="2.5" class="C"/><circle cx="2.5" cy="2.5" r="2" class="B"/></g><g transform="matrix(.695 .719 -.719 .695 58.16 315)"><circle cx="2.5" cy="2.5" r="2.5" class="C"/><circle cx="2.5" cy="2.5" r="2" class="B"/></g><g transform="matrix(.695 .719 -.719 .695 73.16 315)"><circle cx="2.5" cy="2.5" r="2.5" class="C"/><circle cx="2.5" cy="2.5" r="2" class="B"/></g><g transform="matrix(.695 .719 -.719 .695 88.16 315)"><circle cx="2.5" cy="2.5" r="2.5" class="C"/><circle cx="2.5" cy="2.5" r="2" class="B"/></g><g transform="matrix(.695 .719 -.719 .695 103.16 315)"><circle cx="2.5" cy="2.5" r="2.5" class="C"/><circle cx="2.5" cy="2.5" r="2" class="B"/></g><g transform="matrix(.695 .719 -.719 .695 118.16 315)"><circle cx="2.5" cy="2.5" r="2.5" class="C"/><circle cx="2.5" cy="2.5" r="2" class="B"/></g><g transform="matrix(.695 .719 -.719 .695 133.16 315)"><circle cx="2.5" cy="2.5" r="2.5" class="C"/><circle cx="2.5" cy="2.5" r="2" class="B"/></g><g transform="matrix(.695 .719 -.719 .695 148.16 315)"><circle cx="2.5" cy="2.5" r="2.5" class="C"/><circle cx="2.5" cy="2.5" r="2" class="B"/></g><g transform="matrix(.695 .719 -.719 .695 163.16 315)"><circle cx="2.5" cy="2.5" r="2.5" class="C"/><circle cx="2.5" cy="2.5" r="2" class="B"/></g><g transform="matrix(.695 .719 -.719 .695 178.16 315)"><circle cx="2.5" cy="2.5" r="2.5" class="C"/><circle cx="2.5" cy="2.5" r="2" class="B"/></g><g transform="matrix(.695 .719 -.719 .695 193.16 315)"><circle cx="2.5" cy="2.5" r="2.5" class="C"/><circle cx="2.5" cy="2.5" r="2" class="B"/></g><g transform="matrix(.695 .719 -.719 .695 208.16 315)"><circle cx="2.5" cy="2.5" r="2.5" class="C"/><circle cx="2.5" cy="2.5" r="2" class="B"/></g><g transform="matrix(.695 .719 -.719 .695 223.16 315)"><circle cx="2.5" cy="2.5" r="2.5" class="C"/><circle cx="2.5" cy="2.5" r="2" class="B"/></g><g transform="matrix(.695 .719 -.719 .695 238.16 315)"><circle cx="2.5" cy="2.5" r="2.5" class="C"/><circle cx="2.5" cy="2.5" r="2" class="B"/></g><g transform="matrix(.695 .719 -.719 .695 253.16 315)"><circle cx="2.5" cy="2.5" r="2.5" class="C"/><circle cx="2.5" cy="2.5" r="2" class="B"/></g><g transform="matrix(.695 .719 -.719 .695 268.16 315)"><circle cx="2.5" cy="2.5" r="2.5" class="C"/><circle cx="2.5" cy="2.5" r="2" class="B"/></g><g transform="matrix(.695 .719 -.719 .695 283.16 315)"><circle cx="2.5" cy="2.5" r="2.5" class="C"/><circle cx="2.5" cy="2.5" r="2" class="B"/></g><g transform="matrix(.695 .719 -.719 .695 298.16 315)"><circle cx="2.5" cy="2.5" r="2.5" class="C"/><circle cx="2.5" cy="2.5" r="2" class="B"/></g><g transform="matrix(.695 .719 -.719 .695 313.16 315)"><circle cx="2.5" cy="2.5" r="2.5" class="C"/><circle cx="2.5" cy="2.5" r="2" class="B"/></g><g transform="matrix(.695 .719 -.719 .695 328.16 315)"><circle cx="2.5" cy="2.5" r="2.5" class="C"/><circle cx="2.5" cy="2.5" r="2" class="B"/></g><g transform="matrix(.695 .719 -.719 .695 343.16 315)"><circle cx="2.5" cy="2.5" r="2.5" class="C"/><circle cx="2.5" cy="2.5" r="2" class="B"/></g><g transform="matrix(.695 .719 -.719 .695 358.16 315)"><circle cx="2.5" cy="2.5" r="2.5" class="C"/><circle cx="2.5" cy="2.5" r="2" class="B"/></g><g transform="matrix(.695 .719 -.719 .695 373.16 315)"><circle cx="2.5" cy="2.5" r="2.5" class="C"/><circle cx="2.5" cy="2.5" r="2" class="B"/></g><g transform="matrix(.695 .719 -.719 .695 388.16 315)"><circle cx="2.5" cy="2.5" r="2.5" class="C"/><circle cx="2.5" cy="2.5" r="2" class="B"/></g><g transform="matrix(.695 .719 -.719 .695 403.16 315)"><circle cx="2.5" cy="2.5" r="2.5" class="C"/><circle cx="2.5" cy="2.5" r="2" class="B"/></g><g transform="matrix(.695 .719 -.719 .695 418.16 315)"><circle cx="2.5" cy="2.5" r="2.5" class="C"/><circle cx="2.5" cy="2.5" r="2" class="B"/></g><g transform="matrix(.695 .719 -.719 .695 433.16 315)"><circle cx="2.5" cy="2.5" r="2.5" class="C"/><circle cx="2.5" cy="2.5" r="2" class="B"/></g><g transform="matrix(.695 .719 -.719 .695 448.16 315)"><circle cx="2.5" cy="2.5" r="2.5" class="C"/><circle cx="2.5" cy="2.5" r="2" class="B"/></g><g transform="matrix(.695 .719 -.719 .695 43.16 336)"><circle cx="2.5" cy="2.5" r="2.5" class="C"/><circle cx="2.5" cy="2.5" r="2" class="B"/></g><g transform="matrix(.695 .719 -.719 .695 58.16 336)"><circle cx="2.5" cy="2.5" r="2.5" class="C"/><circle cx="2.5" cy="2.5" r="2" class="B"/></g><g transform="matrix(.695 .719 -.719 .695 73.16 336)"><circle cx="2.5" cy="2.5" r="2.5" class="C"/><circle cx="2.5" cy="2.5" r="2" class="B"/></g><g transform="matrix(.695 .719 -.719 .695 88.16 336)"><circle cx="2.5" cy="2.5" r="2.5" class="C"/><circle cx="2.5" cy="2.5" r="2" class="B"/></g><g transform="matrix(.695 .719 -.719 .695 103.16 336)"><circle cx="2.5" cy="2.5" r="2.5" class="C"/><circle cx="2.5" cy="2.5" r="2" class="B"/></g><g transform="matrix(.695 .719 -.719 .695 118.16 336)"><circle cx="2.5" cy="2.5" r="2.5" class="C"/><circle cx="2.5" cy="2.5" r="2" class="B"/></g><g transform="matrix(.695 .719 -.719 .695 133.16 336)"><circle cx="2.5" cy="2.5" r="2.5" class="C"/><circle cx="2.5" cy="2.5" r="2" class="B"/></g><g transform="matrix(.695 .719 -.719 .695 148.16 336)"><circle cx="2.5" cy="2.5" r="2.5" class="C"/><circle cx="2.5" cy="2.5" r="2" class="B"/></g><g transform="matrix(.695 .719 -.719 .695 163.16 336)"><circle cx="2.5" cy="2.5" r="2.5" class="C"/><circle cx="2.5" cy="2.5" r="2" class="B"/></g><g transform="matrix(.695 .719 -.719 .695 178.16 336)"><circle cx="2.5" cy="2.5" r="2.5" class="C"/><circle cx="2.5" cy="2.5" r="2" class="B"/></g><g transform="matrix(.695 .719 -.719 .695 193.16 336)"><circle cx="2.5" cy="2.5" r="2.5" class="C"/><circle cx="2.5" cy="2.5" r="2" class="B"/></g><g transform="matrix(.695 .719 -.719 .695 208.16 336)"><circle cx="2.5" cy="2.5" r="2.5" class="C"/><circle cx="2.5" cy="2.5" r="2" class="B"/></g><g transform="matrix(.695 .719 -.719 .695 223.16 336)"><circle cx="2.5" cy="2.5" r="2.5" class="C"/><circle cx="2.5" cy="2.5" r="2" class="B"/></g><g transform="matrix(.695 .719 -.719 .695 238.16 336)"><circle cx="2.5" cy="2.5" r="2.5" class="C"/><circle cx="2.5" cy="2.5" r="2" class="B"/></g><g transform="matrix(.695 .719 -.719 .695 253.16 336)"><circle cx="2.5" cy="2.5" r="2.5" class="C"/><circle cx="2.5" cy="2.5" r="2" class="B"/></g><g transform="matrix(.695 .719 -.719 .695 268.16 336)"><circle cx="2.5" cy="2.5" r="2.5" class="C"/><circle cx="2.5" cy="2.5" r="2" class="B"/></g><g transform="matrix(.695 .719 -.719 .695 283.16 336)"><circle cx="2.5" cy="2.5" r="2.5" class="C"/><circle cx="2.5" cy="2.5" r="2" class="B"/></g><g transform="matrix(.695 .719 -.719 .695 298.16 336)"><circle cx="2.5" cy="2.5" r="2.5" class="C"/><circle cx="2.5" cy="2.5" r="2" class="B"/></g><g transform="matrix(.695 .719 -.719 .695 313.16 336)"><circle cx="2.5" cy="2.5" r="2.5" class="C"/><circle cx="2.5" cy="2.5" r="2" class="B"/></g><g transform="matrix(.695 .719 -.719 .695 328.16 336)"><circle cx="2.5" cy="2.5" r="2.5" class="C"/><circle cx="2.5" cy="2.5" r="2" class="B"/></g><g transform="matrix(.695 .719 -.719 .695 343.16 336)"><circle cx="2.5" cy="2.5" r="2.5" class="C"/><circle cx="2.5" cy="2.5" r="2" class="B"/></g><g transform="matrix(.695 .719 -.719 .695 358.16 336)"><circle cx="2.5" cy="2.5" r="2.5" class="C"/><circle cx="2.5" cy="2.5" r="2" class="B"/></g><g transform="matrix(.695 .719 -.719 .695 373.16 336)"><circle cx="2.5" cy="2.5" r="2.5" class="C"/><circle cx="2.5" cy="2.5" r="2" class="B"/></g><g transform="matrix(.695 .719 -.719 .695 388.16 336)"><circle cx="2.5" cy="2.5" r="2.5" class="C"/><circle cx="2.5" cy="2.5" r="2" class="B"/></g><g transform="matrix(.695 .719 -.719 .695 403.16 336)"><circle cx="2.5" cy="2.5" r="2.5" class="C"/><circle cx="2.5" cy="2.5" r="2" class="B"/></g><g transform="matrix(.695 .719 -.719 .695 418.16 336)"><circle cx="2.5" cy="2.5" r="2.5" class="C"/><circle cx="2.5" cy="2.5" r="2" class="B"/></g><g transform="matrix(.695 .719 -.719 .695 433.16 336)"><circle cx="2.5" cy="2.5" r="2.5" class="C"/><circle cx="2.5" cy="2.5" r="2" class="B"/></g><g transform="matrix(.695 .719 -.719 .695 448.16 336)"><circle cx="2.5" cy="2.5" r="2.5" class="C"/><circle cx="2.5" cy="2.5" r="2" class="B"/></g><g transform="matrix(.695 .719 -.719 .695 43.16 357)"><circle cx="2.5" cy="2.5" r="2.5" class="C"/><circle cx="2.5" cy="2.5" r="2" class="B"/></g><g transform="matrix(.695 .719 -.719 .695 58.16 357)"><circle cx="2.5" cy="2.5" r="2.5" class="C"/><circle cx="2.5" cy="2.5" r="2" class="B"/></g><g transform="matrix(.695 .719 -.719 .695 73.16 357)"><circle cx="2.5" cy="2.5" r="2.5" class="C"/><circle cx="2.5" cy="2.5" r="2" class="B"/></g><g transform="matrix(.695 .719 -.719 .695 88.16 357)"><circle cx="2.5" cy="2.5" r="2.5" class="C"/><circle cx="2.5" cy="2.5" r="2" class="B"/></g><g transform="matrix(.695 .719 -.719 .695 103.16 357)"><circle cx="2.5" cy="2.5" r="2.5" class="C"/><circle cx="2.5" cy="2.5" r="2" class="B"/></g><g transform="matrix(.695 .719 -.719 .695 118.16 357)"><circle cx="2.5" cy="2.5" r="2.5" class="C"/><circle cx="2.5" cy="2.5" r="2" class="B"/></g><g transform="matrix(.695 .719 -.719 .695 133.16 357)"><circle cx="2.5" cy="2.5" r="2.5" class="C"/><circle cx="2.5" cy="2.5" r="2" class="B"/></g><g transform="matrix(.695 .719 -.719 .695 148.16 357)"><circle cx="2.5" cy="2.5" r="2.5" class="C"/><circle cx="2.5" cy="2.5" r="2" class="B"/></g><g transform="matrix(.695 .719 -.719 .695 163.16 357)"><circle cx="2.5" cy="2.5" r="2.5" class="C"/><circle cx="2.5" cy="2.5" r="2" class="B"/></g><g transform="matrix(.695 .719 -.719 .695 178.16 357)"><circle cx="2.5" cy="2.5" r="2.5" class="C"/><circle cx="2.5" cy="2.5" r="2" class="B"/></g><g transform="matrix(.695 .719 -.719 .695 193.16 357)"><circle cx="2.5" cy="2.5" r="2.5" class="C"/><circle cx="2.5" cy="2.5" r="2" class="B"/></g><g transform="matrix(.695 .719 -.719 .695 208.16 357)"><circle cx="2.5" cy="2.5" r="2.5" class="C"/><circle cx="2.5" cy="2.5" r="2" class="B"/></g><g transform="matrix(.695 .719 -.719 .695 223.16 357)"><circle cx="2.5" cy="2.5" r="2.5" class="C"/><circle cx="2.5" cy="2.5" r="2" class="B"/></g><g transform="matrix(.695 .719 -.719 .695 238.16 357)"><circle cx="2.5" cy="2.5" r="2.5" class="C"/><circle cx="2.5" cy="2.5" r="2" class="B"/></g><g transform="matrix(.695 .719 -.719 .695 253.16 357)"><circle cx="2.5" cy="2.5" r="2.5" class="C"/><circle cx="2.5" cy="2.5" r="2" class="B"/></g><g transform="matrix(.695 .719 -.719 .695 268.16 357)"><circle cx="2.5" cy="2.5" r="2.5" class="C"/><circle cx="2.5" cy="2.5" r="2" class="B"/></g><g transform="matrix(.695 .719 -.719 .695 283.16 357)"><circle cx="2.5" cy="2.5" r="2.5" class="C"/><circle cx="2.5" cy="2.5" r="2" class="B"/></g><g transform="matrix(.695 .719 -.719 .695 298.16 357)"><circle cx="2.5" cy="2.5" r="2.5" class="C"/><circle cx="2.5" cy="2.5" r="2" class="B"/></g><g transform="matrix(.695 .719 -.719 .695 313.16 357)"><circle cx="2.5" cy="2.5" r="2.5" class="C"/><circle cx="2.5" cy="2.5" r="2" class="B"/></g><g transform="matrix(.695 .719 -.719 .695 328.16 357)"><circle cx="2.5" cy="2.5" r="2.5" class="C"/><circle cx="2.5" cy="2.5" r="2" class="B"/></g><g transform="matrix(.695 .719 -.719 .695 343.16 357)"><circle cx="2.5" cy="2.5" r="2.5" class="C"/><circle cx="2.5" cy="2.5" r="2" class="B"/></g><g transform="matrix(.695 .719 -.719 .695 358.16 357)"><circle cx="2.5" cy="2.5" r="2.5" class="C"/><circle cx="2.5" cy="2.5" r="2" class="B"/></g><g transform="matrix(.695 .719 -.719 .695 373.16 357)"><circle cx="2.5" cy="2.5" r="2.5" class="C"/><circle cx="2.5" cy="2.5" r="2" class="B"/></g><g transform="matrix(.695 .719 -.719 .695 388.16 357)"><circle cx="2.5" cy="2.5" r="2.5" class="C"/><circle cx="2.5" cy="2.5" r="2" class="B"/></g><g transform="matrix(.695 .719 -.719 .695 403.16 357)"><circle cx="2.5" cy="2.5" r="2.5" class="C"/><circle cx="2.5" cy="2.5" r="2" class="B"/></g><g transform="matrix(.695 .719 -.719 .695 418.16 357)"><circle cx="2.5" cy="2.5" r="2.5" class="C"/><circle cx="2.5" cy="2.5" r="2" class="B"/></g><g transform="matrix(.695 .719 -.719 .695 433.16 357)"><circle cx="2.5" cy="2.5" r="2.5" class="C"/><circle cx="2.5" cy="2.5" r="2" class="B"/></g><g transform="matrix(.695 .719 -.719 .695 448.16 357)"><circle cx="2.5" cy="2.5" r="2.5" class="C"/><circle cx="2.5" cy="2.5" r="2" class="B"/></g><g transform="matrix(.695 .719 -.719 .695 43.16 378)"><circle cx="2.5" cy="2.5" r="2.5" class="C"/><circle cx="2.5" cy="2.5" r="2" class="B"/></g><g transform="matrix(.695 .719 -.719 .695 58.16 378)"><circle cx="2.5" cy="2.5" r="2.5" class="C"/><circle cx="2.5" cy="2.5" r="2" class="B"/></g><g transform="matrix(.695 .719 -.719 .695 73.16 378)"><circle cx="2.5" cy="2.5" r="2.5" class="C"/><circle cx="2.5" cy="2.5" r="2" class="B"/></g><g transform="matrix(.695 .719 -.719 .695 88.16 378)"><circle cx="2.5" cy="2.5" r="2.5" class="C"/><circle cx="2.5" cy="2.5" r="2" class="B"/></g><g transform="matrix(.695 .719 -.719 .695 103.16 378)"><circle cx="2.5" cy="2.5" r="2.5" class="C"/><circle cx="2.5" cy="2.5" r="2" class="B"/></g><g transform="matrix(.695 .719 -.719 .695 118.16 378)"><circle cx="2.5" cy="2.5" r="2.5" class="C"/><circle cx="2.5" cy="2.5" r="2" class="B"/></g><g transform="matrix(.695 .719 -.719 .695 133.16 378)"><circle cx="2.5" cy="2.5" r="2.5" class="C"/><circle cx="2.5" cy="2.5" r="2" class="B"/></g><g transform="matrix(.695 .719 -.719 .695 148.16 378)"><circle cx="2.5" cy="2.5" r="2.5" class="C"/><circle cx="2.5" cy="2.5" r="2" class="B"/></g><g transform="matrix(.695 .719 -.719 .695 163.16 378)"><circle cx="2.5" cy="2.5" r="2.5" class="C"/><circle cx="2.5" cy="2.5" r="2" class="B"/></g><g transform="matrix(.695 .719 -.719 .695 178.16 378)"><circle cx="2.5" cy="2.5" r="2.5" class="C"/><circle cx="2.5" cy="2.5" r="2" class="B"/></g><g transform="matrix(.695 .719 -.719 .695 193.16 378)"><circle cx="2.5" cy="2.5" r="2.5" class="C"/><circle cx="2.5" cy="2.5" r="2" class="B"/></g><g transform="matrix(.695 .719 -.719 .695 208.16 378)"><circle cx="2.5" cy="2.5" r="2.5" class="C"/><circle cx="2.5" cy="2.5" r="2" class="B"/></g><g transform="matrix(.695 .719 -.719 .695 223.16 378)"><circle cx="2.5" cy="2.5" r="2.5" class="C"/><circle cx="2.5" cy="2.5" r="2" class="B"/></g><g transform="matrix(.695 .719 -.719 .695 238.16 378)"><circle cx="2.5" cy="2.5" r="2.5" class="C"/><circle cx="2.5" cy="2.5" r="2" class="B"/></g><g transform="matrix(.695 .719 -.719 .695 253.16 378)"><circle cx="2.5" cy="2.5" r="2.5" class="C"/><circle cx="2.5" cy="2.5" r="2" class="B"/></g><g transform="matrix(.695 .719 -.719 .695 268.16 378)"><circle cx="2.5" cy="2.5" r="2.5" class="C"/><circle cx="2.5" cy="2.5" r="2" class="B"/></g><g transform="matrix(.695 .719 -.719 .695 283.16 378)"><circle cx="2.5" cy="2.5" r="2.5" class="C"/><circle cx="2.5" cy="2.5" r="2" class="B"/></g><g transform="matrix(.695 .719 -.719 .695 298.16 378)"><circle cx="2.5" cy="2.5" r="2.5" class="C"/><circle cx="2.5" cy="2.5" r="2" class="B"/></g><g transform="matrix(.695 .719 -.719 .695 313.16 378)"><circle cx="2.5" cy="2.5" r="2.5" class="C"/><circle cx="2.5" cy="2.5" r="2" class="B"/></g><g transform="matrix(.695 .719 -.719 .695 328.16 378)"><circle cx="2.5" cy="2.5" r="2.5" class="C"/><circle cx="2.5" cy="2.5" r="2" class="B"/></g><g transform="matrix(.695 .719 -.719 .695 343.16 378)"><circle cx="2.5" cy="2.5" r="2.5" class="C"/><circle cx="2.5" cy="2.5" r="2" class="B"/></g><g transform="matrix(.695 .719 -.719 .695 358.16 378)"><circle cx="2.5" cy="2.5" r="2.5" class="C"/><circle cx="2.5" cy="2.5" r="2" class="B"/></g><g transform="matrix(.695 .719 -.719 .695 373.16 378)"><circle cx="2.5" cy="2.5" r="2.5" class="C"/><circle cx="2.5" cy="2.5" r="2" class="B"/></g><g transform="matrix(.695 .719 -.719 .695 388.16 378)"><circle cx="2.5" cy="2.5" r="2.5" class="C"/><circle cx="2.5" cy="2.5" r="2" class="B"/></g><g transform="matrix(.695 .719 -.719 .695 403.16 378)"><circle cx="2.5" cy="2.5" r="2.5" class="C"/><circle cx="2.5" cy="2.5" r="2" class="B"/></g><g transform="matrix(.695 .719 -.719 .695 418.16 378)"><circle cx="2.5" cy="2.5" r="2.5" class="C"/><circle cx="2.5" cy="2.5" r="2" class="B"/></g><g transform="matrix(.695 .719 -.719 .695 433.16 378)"><circle cx="2.5" cy="2.5" r="2.5" class="C"/><circle cx="2.5" cy="2.5" r="2" class="B"/></g><g transform="matrix(.695 .719 -.719 .695 448.16 378)"><circle cx="2.5" cy="2.5" r="2.5" class="C"/><circle cx="2.5" cy="2.5" r="2" class="B"/></g><g transform="matrix(.695 .719 -.719 .695 43.16 399)"><circle cx="2.5" cy="2.5" r="2.5" class="C"/><circle cx="2.5" cy="2.5" r="2" class="B"/></g><g transform="matrix(.695 .719 -.719 .695 58.16 399)"><circle cx="2.5" cy="2.5" r="2.5" class="C"/><circle cx="2.5" cy="2.5" r="2" class="B"/></g><g transform="matrix(.695 .719 -.719 .695 73.16 399)"><circle cx="2.5" cy="2.5" r="2.5" class="C"/><circle cx="2.5" cy="2.5" r="2" class="B"/></g><g transform="matrix(.695 .719 -.719 .695 88.16 399)"><circle cx="2.5" cy="2.5" r="2.5" class="C"/><circle cx="2.5" cy="2.5" r="2" class="B"/></g><g transform="matrix(.695 .719 -.719 .695 103.16 399)"><circle cx="2.5" cy="2.5" r="2.5" class="C"/><circle cx="2.5" cy="2.5" r="2" class="B"/></g><g transform="matrix(.695 .719 -.719 .695 118.16 399)"><circle cx="2.5" cy="2.5" r="2.5" class="C"/><circle cx="2.5" cy="2.5" r="2" class="B"/></g><g transform="matrix(.695 .719 -.719 .695 133.16 399)"><circle cx="2.5" cy="2.5" r="2.5" class="C"/><circle cx="2.5" cy="2.5" r="2" class="B"/></g><g transform="matrix(.695 .719 -.719 .695 148.16 399)"><circle cx="2.5" cy="2.5" r="2.5" class="C"/><circle cx="2.5" cy="2.5" r="2" class="B"/></g><g transform="matrix(.695 .719 -.719 .695 163.16 399)"><circle cx="2.5" cy="2.5" r="2.5" class="C"/><circle cx="2.5" cy="2.5" r="2" class="B"/></g><g transform="matrix(.695 .719 -.719 .695 178.16 399)"><circle cx="2.5" cy="2.5" r="2.5" class="C"/><circle cx="2.5" cy="2.5" r="2" class="B"/></g><g transform="matrix(.695 .719 -.719 .695 193.16 399)"><circle cx="2.5" cy="2.5" r="2.5" class="C"/><circle cx="2.5" cy="2.5" r="2" class="B"/></g><g transform="matrix(.695 .719 -.719 .695 208.16 399)"><circle cx="2.5" cy="2.5" r="2.5" class="C"/><circle cx="2.5" cy="2.5" r="2" class="B"/></g><g transform="matrix(.695 .719 -.719 .695 223.16 399)"><circle cx="2.5" cy="2.5" r="2.5" class="C"/><circle cx="2.5" cy="2.5" r="2" class="B"/></g><g transform="matrix(.695 .719 -.719 .695 238.16 399)"><circle cx="2.5" cy="2.5" r="2.5" class="C"/><circle cx="2.5" cy="2.5" r="2" class="B"/></g><g transform="matrix(.695 .719 -.719 .695 253.16 399)"><circle cx="2.5" cy="2.5" r="2.5" class="C"/><circle cx="2.5" cy="2.5" r="2" class="B"/></g><g transform="matrix(.695 .719 -.719 .695 268.16 399)"><circle cx="2.5" cy="2.5" r="2.5" class="C"/><circle cx="2.5" cy="2.5" r="2" class="B"/></g><g transform="matrix(.695 .719 -.719 .695 283.16 399)"><circle cx="2.5" cy="2.5" r="2.5" class="C"/><circle cx="2.5" cy="2.5" r="2" class="B"/></g><g transform="matrix(.695 .719 -.719 .695 298.16 399)"><circle cx="2.5" cy="2.5" r="2.5" class="C"/><circle cx="2.5" cy="2.5" r="2" class="B"/></g><g transform="matrix(.695 .719 -.719 .695 313.16 399)"><circle cx="2.5" cy="2.5" r="2.5" class="C"/><circle cx="2.5" cy="2.5" r="2" class="B"/></g><g transform="matrix(.695 .719 -.719 .695 328.16 399)"><circle cx="2.5" cy="2.5" r="2.5" class="C"/><circle cx="2.5" cy="2.5" r="2" class="B"/></g><g transform="matrix(.695 .719 -.719 .695 343.16 399)"><circle cx="2.5" cy="2.5" r="2.5" class="C"/><circle cx="2.5" cy="2.5" r="2" class="B"/></g><g transform="matrix(.695 .719 -.719 .695 358.16 399)"><circle cx="2.5" cy="2.5" r="2.5" class="C"/><circle cx="2.5" cy="2.5" r="2" class="B"/></g><g transform="matrix(.695 .719 -.719 .695 373.16 399)"><circle cx="2.5" cy="2.5" r="2.5" class="C"/><circle cx="2.5" cy="2.5" r="2" class="B"/></g><g transform="matrix(.695 .719 -.719 .695 388.16 399)"><circle cx="2.5" cy="2.5" r="2.5" class="C"/><circle cx="2.5" cy="2.5" r="2" class="B"/></g><g transform="matrix(.695 .719 -.719 .695 403.16 399)"><circle cx="2.5" cy="2.5" r="2.5" class="C"/><circle cx="2.5" cy="2.5" r="2" class="B"/></g><g transform="matrix(.695 .719 -.719 .695 418.16 399)"><circle cx="2.5" cy="2.5" r="2.5" class="C"/><circle cx="2.5" cy="2.5" r="2" class="B"/></g><g transform="matrix(.695 .719 -.719 .695 433.16 399)"><circle cx="2.5" cy="2.5" r="2.5" class="C"/><circle cx="2.5" cy="2.5" r="2" class="B"/></g><g transform="matrix(.695 .719 -.719 .695 448.16 399)"><circle cx="2.5" cy="2.5" r="2.5" class="C"/><circle cx="2.5" cy="2.5" r="2" class="B"/></g><g transform="matrix(.695 .719 -.719 .695 43.16 420)"><circle cx="2.5" cy="2.5" r="2.5" class="C"/><circle cx="2.5" cy="2.5" r="2" class="B"/></g><g transform="matrix(.695 .719 -.719 .695 58.16 420)"><circle cx="2.5" cy="2.5" r="2.5" class="C"/><circle cx="2.5" cy="2.5" r="2" class="B"/></g><g transform="matrix(.695 .719 -.719 .695 73.16 420)"><circle cx="2.5" cy="2.5" r="2.5" class="C"/><circle cx="2.5" cy="2.5" r="2" class="B"/></g><g transform="matrix(.695 .719 -.719 .695 88.16 420)"><circle cx="2.5" cy="2.5" r="2.5" class="C"/><circle cx="2.5" cy="2.5" r="2" class="B"/></g><g transform="matrix(.695 .719 -.719 .695 103.16 420)"><circle cx="2.5" cy="2.5" r="2.5" class="C"/><circle cx="2.5" cy="2.5" r="2" class="B"/></g><g transform="matrix(.695 .719 -.719 .695 118.16 420)"><circle cx="2.5" cy="2.5" r="2.5" class="C"/><circle cx="2.5" cy="2.5" r="2" class="B"/></g><g transform="matrix(.695 .719 -.719 .695 133.16 420)"><circle cx="2.5" cy="2.5" r="2.5" class="C"/><circle cx="2.5" cy="2.5" r="2" class="B"/></g><g transform="matrix(.695 .719 -.719 .695 148.16 420)"><circle cx="2.5" cy="2.5" r="2.5" class="C"/><circle cx="2.5" cy="2.5" r="2" class="B"/></g><g transform="matrix(.695 .719 -.719 .695 163.16 420)"><circle cx="2.5" cy="2.5" r="2.5" class="C"/><circle cx="2.5" cy="2.5" r="2" class="B"/></g><g transform="matrix(.695 .719 -.719 .695 178.16 420)"><circle cx="2.5" cy="2.5" r="2.5" class="C"/><circle cx="2.5" cy="2.5" r="2" class="B"/></g><g transform="matrix(.695 .719 -.719 .695 193.16 420)"><circle cx="2.5" cy="2.5" r="2.5" class="C"/><circle cx="2.5" cy="2.5" r="2" class="B"/></g><g transform="matrix(.695 .719 -.719 .695 208.16 420)"><circle cx="2.5" cy="2.5" r="2.5" class="C"/><circle cx="2.5" cy="2.5" r="2" class="B"/></g><g transform="matrix(.695 .719 -.719 .695 223.16 420)"><circle cx="2.5" cy="2.5" r="2.5" class="C"/><circle cx="2.5" cy="2.5" r="2" class="B"/></g><g transform="matrix(.695 .719 -.719 .695 238.16 420)"><circle cx="2.5" cy="2.5" r="2.5" class="C"/><circle cx="2.5" cy="2.5" r="2" class="B"/></g><g transform="matrix(.695 .719 -.719 .695 253.16 420)"><circle cx="2.5" cy="2.5" r="2.5" class="C"/><circle cx="2.5" cy="2.5" r="2" class="B"/></g><g transform="matrix(.695 .719 -.719 .695 268.16 420)"><circle cx="2.5" cy="2.5" r="2.5" class="C"/><circle cx="2.5" cy="2.5" r="2" class="B"/></g><g transform="matrix(.695 .719 -.719 .695 283.16 420)"><circle cx="2.5" cy="2.5" r="2.5" class="C"/><circle cx="2.5" cy="2.5" r="2" class="B"/></g><g transform="matrix(.695 .719 -.719 .695 298.16 420)"><circle cx="2.5" cy="2.5" r="2.5" class="C"/><circle cx="2.5" cy="2.5" r="2" class="B"/></g><g transform="matrix(.695 .719 -.719 .695 313.16 420)"><circle cx="2.5" cy="2.5" r="2.5" class="C"/><circle cx="2.5" cy="2.5" r="2" class="B"/></g><g transform="matrix(.695 .719 -.719 .695 328.16 420)"><circle cx="2.5" cy="2.5" r="2.5" class="C"/><circle cx="2.5" cy="2.5" r="2" class="B"/></g><g transform="matrix(.695 .719 -.719 .695 343.16 420)"><circle cx="2.5" cy="2.5" r="2.5" class="C"/><circle cx="2.5" cy="2.5" r="2" class="B"/></g><g transform="matrix(.695 .719 -.719 .695 358.16 420)"><circle cx="2.5" cy="2.5" r="2.5" class="C"/><circle cx="2.5" cy="2.5" r="2" class="B"/></g><g transform="matrix(.695 .719 -.719 .695 373.16 420)"><circle cx="2.5" cy="2.5" r="2.5" class="C"/><circle cx="2.5" cy="2.5" r="2" class="B"/></g><g transform="matrix(.695 .719 -.719 .695 388.16 420)"><circle cx="2.5" cy="2.5" r="2.5" class="C"/><circle cx="2.5" cy="2.5" r="2" class="B"/></g><g transform="matrix(.695 .719 -.719 .695 403.16 420)"><circle cx="2.5" cy="2.5" r="2.5" class="C"/><circle cx="2.5" cy="2.5" r="2" class="B"/></g><g transform="matrix(.695 .719 -.719 .695 418.16 420)"><circle cx="2.5" cy="2.5" r="2.5" class="C"/><circle cx="2.5" cy="2.5" r="2" class="B"/></g><g transform="matrix(.695 .719 -.719 .695 433.16 420)"><circle cx="2.5" cy="2.5" r="2.5" class="C"/><circle cx="2.5" cy="2.5" r="2" class="B"/></g><g transform="matrix(.695 .719 -.719 .695 448.16 420)"><circle cx="2.5" cy="2.5" r="2.5" class="C"/><circle cx="2.5" cy="2.5" r="2" class="B"/></g><g transform="matrix(.695 .719 -.719 .695 43.16 441)"><circle cx="2.5" cy="2.5" r="2.5" class="C"/><circle cx="2.5" cy="2.5" r="2" class="B"/></g><g transform="matrix(.695 .719 -.719 .695 58.16 441)"><circle cx="2.5" cy="2.5" r="2.5" class="C"/><circle cx="2.5" cy="2.5" r="2" class="B"/></g><g transform="matrix(.695 .719 -.719 .695 73.16 441)"><circle cx="2.5" cy="2.5" r="2.5" class="C"/><circle cx="2.5" cy="2.5" r="2" class="B"/></g><g transform="matrix(.695 .719 -.719 .695 88.16 441)"><circle cx="2.5" cy="2.5" r="2.5" class="C"/><circle cx="2.5" cy="2.5" r="2" class="B"/></g><g transform="matrix(.695 .719 -.719 .695 103.16 441)"><circle cx="2.5" cy="2.5" r="2.5" class="C"/><circle cx="2.5" cy="2.5" r="2" class="B"/></g><g transform="matrix(.695 .719 -.719 .695 118.16 441)"><circle cx="2.5" cy="2.5" r="2.5" class="C"/><circle cx="2.5" cy="2.5" r="2" class="B"/></g><g transform="matrix(.695 .719 -.719 .695 133.16 441)"><circle cx="2.5" cy="2.5" r="2.5" class="C"/><circle cx="2.5" cy="2.5" r="2" class="B"/></g><g transform="matrix(.695 .719 -.719 .695 148.16 441)"><circle cx="2.5" cy="2.5" r="2.5" class="C"/><circle cx="2.5" cy="2.5" r="2" class="B"/></g><g transform="matrix(.695 .719 -.719 .695 163.16 441)"><circle cx="2.5" cy="2.5" r="2.5" class="C"/><circle cx="2.5" cy="2.5" r="2" class="B"/></g><g transform="matrix(.695 .719 -.719 .695 178.16 441)"><circle cx="2.5" cy="2.5" r="2.5" class="C"/><circle cx="2.5" cy="2.5" r="2" class="B"/></g><g transform="matrix(.695 .719 -.719 .695 193.16 441)"><circle cx="2.5" cy="2.5" r="2.5" class="C"/><circle cx="2.5" cy="2.5" r="2" class="B"/></g><g transform="matrix(.695 .719 -.719 .695 208.16 441)"><circle cx="2.5" cy="2.5" r="2.5" class="C"/><circle cx="2.5" cy="2.5" r="2" class="B"/></g><g transform="matrix(.695 .719 -.719 .695 223.16 441)"><circle cx="2.5" cy="2.5" r="2.5" class="C"/><circle cx="2.5" cy="2.5" r="2" class="B"/></g><g transform="matrix(.695 .719 -.719 .695 238.16 441)"><circle cx="2.5" cy="2.5" r="2.5" class="C"/><circle cx="2.5" cy="2.5" r="2" class="B"/></g><g transform="matrix(.695 .719 -.719 .695 253.16 441)"><circle cx="2.5" cy="2.5" r="2.5" class="C"/><circle cx="2.5" cy="2.5" r="2" class="B"/></g><g transform="matrix(.695 .719 -.719 .695 268.16 441)"><circle cx="2.5" cy="2.5" r="2.5" class="C"/><circle cx="2.5" cy="2.5" r="2" class="B"/></g><g transform="matrix(.695 .719 -.719 .695 283.16 441)"><circle cx="2.5" cy="2.5" r="2.5" class="C"/><circle cx="2.5" cy="2.5" r="2" class="B"/></g><g transform="matrix(.695 .719 -.719 .695 298.16 441)"><circle cx="2.5" cy="2.5" r="2.5" class="C"/><circle cx="2.5" cy="2.5" r="2" class="B"/></g><g transform="matrix(.695 .719 -.719 .695 313.16 441)"><circle cx="2.5" cy="2.5" r="2.5" class="C"/><circle cx="2.5" cy="2.5" r="2" class="B"/></g><g transform="matrix(.695 .719 -.719 .695 328.16 441)"><circle cx="2.5" cy="2.5" r="2.5" class="C"/><circle cx="2.5" cy="2.5" r="2" class="B"/></g><g transform="matrix(.695 .719 -.719 .695 343.16 441)"><circle cx="2.5" cy="2.5" r="2.5" class="C"/><circle cx="2.5" cy="2.5" r="2" class="B"/></g><g transform="matrix(.695 .719 -.719 .695 358.16 441)"><circle cx="2.5" cy="2.5" r="2.5" class="C"/><circle cx="2.5" cy="2.5" r="2" class="B"/></g><g transform="matrix(.695 .719 -.719 .695 373.16 441)"><circle cx="2.5" cy="2.5" r="2.5" class="C"/><circle cx="2.5" cy="2.5" r="2" class="B"/></g><g transform="matrix(.695 .719 -.719 .695 388.16 441)"><circle cx="2.5" cy="2.5" r="2.5" class="C"/><circle cx="2.5" cy="2.5" r="2" class="B"/></g><g transform="matrix(.695 .719 -.719 .695 403.16 441)"><circle cx="2.5" cy="2.5" r="2.5" class="C"/><circle cx="2.5" cy="2.5" r="2" class="B"/></g><g transform="matrix(.695 .719 -.719 .695 418.16 441)"><circle cx="2.5" cy="2.5" r="2.5" class="C"/><circle cx="2.5" cy="2.5" r="2" class="B"/></g><g transform="matrix(.695 .719 -.719 .695 433.16 441)"><circle cx="2.5" cy="2.5" r="2.5" class="C"/><circle cx="2.5" cy="2.5" r="2" class="B"/></g><g transform="matrix(.695 .719 -.719 .695 448.16 441)"><circle cx="2.5" cy="2.5" r="2.5" class="C"/><circle cx="2.5" cy="2.5" r="2" class="B"/></g></g></g></g></svg>